<?xml version="1.0" standalone="no"?>
<!DOCTYPE svg PUBLIC "-//W3C//DTD SVG 20010904//EN"
 "http://www.w3.org/TR/2001/REC-SVG-20010904/DTD/svg10.dtd">
<svg version="1.0" xmlns="http://www.w3.org/2000/svg"
 width="700.000000pt" height="700.000000pt" viewBox="0 0 700.000000 700.000000"
 preserveAspectRatio="xMidYMid meet">
<metadata>
Created by potrace 1.14, written by Peter Selinger 2001-2017
</metadata>
<g transform="translate(0.000000,700.000000) scale(0.100000,-0.100000)"
fill="#000000" stroke="none">
<path d="M0 5141 l0 -1859 58 14 c541 130 1217 249 1752 309 226 25 220 23
220 48 0 12 11 38 24 57 26 39 167 302 241 450 l47 94 -17 33 c-22 40 -69 63
-132 63 -40 0 -65 -10 -153 -60 -179 -102 -327 -140 -548 -140 -74 0 -164 5
-198 11 l-63 11 -51 73 c-47 69 -110 190 -125 243 -6 21 -4 22 58 22 63 0 65
1 104 43 70 76 156 244 188 368 17 64 38 114 53 123 5 3 80 -13 168 -35 142
-36 178 -41 334 -49 140 -6 187 -12 235 -29 33 -12 71 -25 85 -27 l25 -6 -25
21 c-46 38 -110 62 -193 72 -248 31 -330 43 -421 65 -221 53 -377 119 -565
236 -104 66 -112 73 -95 85 21 15 22 15 134 32 97 15 304 85 461 157 253 115
290 128 354 129 48 0 69 -6 106 -27 71 -41 193 -136 304 -234 123 -109 83 -54
-67 91 -115 113 -197 183 -247 213 l-33 20 63 47 c330 243 773 479 1119 597
256 87 541 128 890 128 221 0 325 -11 486 -50 142 -34 241 -72 382 -145 140
-73 245 -150 375 -275 154 -147 292 -331 376 -497 27 -55 35 -63 60 -63 43 0
112 41 132 80 24 43 24 74 0 125 -29 65 -33 92 -15 109 18 18 36 11 71 -26 53
-56 70 -204 34 -284 -26 -56 -85 -120 -149 -161 l-53 -34 8 -72 c12 -109 7
-322 -10 -408 -33 -163 -128 -374 -222 -494 -87 -110 -106 -141 -115 -182 -12
-51 5 -166 33 -223 35 -73 30 -102 -45 -233 -37 -64 -62 -117 -57 -117 5 0
104 -14 221 -30 441 -63 881 -146 1336 -254 l62 -14 -2 1461 -3 1462 -23 80
c-99 340 -346 588 -687 687 l-80 23 -3102 3 -3103 2 0 -1859z"/>
<path d="M5157 4964 c-133 -336 -429 -663 -719 -793 -394 -176 -854 -138
-1377 115 -85 41 -156 72 -158 70 -2 -2 36 -28 84 -57 125 -77 125 -78 120
-304 -4 -153 -7 -188 -26 -235 -11 -30 -21 -57 -21 -60 0 -3 235 -6 523 -6
484 -1 694 -9 1098 -40 l85 -7 62 97 c34 53 62 100 62 105 0 5 -26 32 -58 60
-53 47 -227 235 -244 265 -4 8 28 41 89 91 155 128 300 301 394 470 44 79 122
271 117 287 -2 6 -16 -20 -31 -58z"/>
<path d="M1606 4824 c-32 -31 -11 -84 32 -84 35 0 52 16 52 50 0 14 -5 31 -12
38 -17 17 -54 15 -72 -4z"/>
<path d="M2670 4006 c-234 -218 -371 -360 -341 -353 13 3 129 11 258 18 278
15 264 8 271 145 l4 83 -65 41 -66 42 60 89 c33 49 56 89 52 89 -5 0 -83 -69
-173 -154z"/>
<path d="M4975 4021 c-3 -6 9 -18 27 -27 101 -52 178 -122 178 -163 0 -5 -36
-54 -80 -108 l-80 -98 48 -7 c100 -14 99 -14 134 55 26 50 32 74 32 126 1 63
1 63 -45 105 -54 49 -205 131 -214 117z"/>
<path d="M2830 3299 c-875 -42 -1741 -162 -2623 -365 l-208 -47 3 -1051 3
-1051 28 -89 c53 -169 130 -299 247 -416 117 -117 247 -194 416 -247 l89 -28
3108 -3 3107 -2 0 1443 0 1444 -182 42 c-874 205 -1764 328 -2678 371 -245 11
-1064 11 -1310 -1z m-1193 -964 c120 -36 183 -121 183 -251 0 -95 -34 -165
-104 -211 -64 -44 -101 -53 -238 -60 l-118 -6 0 272 0 271 113 0 c71 0 132 -6
164 -15z m403 -155 c0 -225 17 -270 100 -270 83 0 100 45 100 270 l0 170 60 0
60 0 0 -165 c0 -179 -10 -247 -43 -296 -32 -47 -65 -68 -127 -79 -82 -15 -155
2 -201 49 -57 57 -69 112 -69 318 l0 173 60 0 60 0 0 -170z m560 -10 c0 -227
13 -260 103 -260 75 0 96 63 97 288 l0 152 61 0 61 0 -4 -187 c-4 -116 -10
-201 -18 -223 -35 -94 -95 -133 -206 -133 -94 0 -151 31 -186 100 -21 45 -23
62 -26 246 l-3 197 60 0 61 0 0 -180z m692 168 c85 -25 133 -109 109 -190 -12
-40 -47 -82 -85 -104 -18 -9 -12 -20 63 -122 l81 -112 -77 0 -78 0 -70 108
-70 107 -3 -107 -3 -108 -64 0 -65 0 0 270 0 270 111 0 c62 0 129 -5 151 -12z
m598 -14 c0 -15 -46 -105 -110 -214 -60 -103 -110 -190 -110 -194 0 -3 52 -6
115 -6 l115 0 0 -50 0 -50 -200 0 -200 0 0 33 c0 23 32 85 109 217 l109 185
-104 3 -104 3 0 49 0 50 190 0 190 0 0 -26z m472 -244 c54 -146 98 -266 98
-267 0 -2 -31 -3 -68 -3 l-68 0 -15 48 -15 47 -94 0 -94 0 -17 -45 -17 -45
-67 -3 c-52 -2 -66 0 -62 10 3 7 53 129 112 271 l108 258 50 -3 50 -3 99 -265z
m567 12 c52 -141 96 -263 99 -269 3 -10 -14 -13 -65 -13 l-69 0 -15 48 -15 47
-94 0 -94 0 -17 -45 -17 -45 -66 -3 -67 -3 14 33 c7 18 58 140 112 271 l99
237 51 0 50 0 94 -258z m427 78 c38 -98 72 -176 75 -172 3 4 37 85 74 180 l69
172 88 0 88 0 0 -270 0 -270 -60 0 -60 0 0 187 c0 111 -4 183 -9 178 -5 -6
-41 -90 -81 -187 l-72 -178 -43 0 -42 0 -74 188 -74 187 -3 -187 -2 -188 -60
0 -60 0 0 270 0 270 89 0 88 0 69 -180z m-1299 -739 c23 -11 45 -25 48 -31 4
-6 -8 -28 -25 -50 l-32 -40 -25 20 c-33 26 -88 35 -119 21 -21 -9 -25 -17 -22
-43 3 -30 8 -34 87 -64 46 -18 95 -43 109 -56 55 -51 68 -141 29 -199 -68
-101 -237 -114 -356 -28 l-44 31 41 41 40 40 32 -26 c68 -58 162 -57 177 1 11
43 -11 62 -134 115 -84 36 -124 108 -103 185 19 74 93 115 195 109 35 -3 78
-13 102 -26z m2320 1 c23 -12 44 -26 48 -32 3 -5 -8 -28 -26 -50 l-32 -39 -27
19 c-53 38 -120 38 -140 0 -18 -34 4 -56 86 -86 127 -46 178 -113 160 -208
-26 -135 -235 -177 -375 -75 l-44 31 41 40 40 41 38 -31 c53 -42 110 -51 147
-22 56 44 28 89 -84 130 -77 29 -125 75 -134 129 -12 74 21 132 95 166 48 21
152 15 207 -13z m-5550 -147 c29 -88 56 -167 59 -175 3 -8 34 63 69 160 l62
175 68 3 c52 2 66 0 62 -10 -2 -7 -53 -129 -112 -270 l-108 -258 -47 0 -48 0
-82 223 c-46 122 -91 244 -101 270 l-19 48 72 -3 71 -3 54 -160z m623 108 c12
-32 53 -141 90 -243 38 -102 73 -197 79 -212 l11 -28 -69 0 -69 0 -18 50 -18
51 -90 -3 -90 -3 -17 -45 -17 -45 -66 -3 c-36 -2 -66 0 -66 3 0 3 46 114 101
248 56 133 105 252 110 265 7 19 16 22 58 22 l50 0 21 -57z m546 30 c104 -55
112 -191 15 -261 l-41 -30 71 -98 c39 -55 76 -105 81 -111 8 -10 -6 -13 -65
-13 l-76 0 -72 105 c-40 58 -76 105 -81 105 -4 0 -8 -47 -8 -105 l0 -105 -60
0 -60 0 0 271 0 271 128 -4 c106 -3 134 -7 168 -25z m336 -75 l3 -103 84 103
83 102 69 0 c38 0 69 -2 69 -5 0 -3 -38 -50 -85 -106 -47 -55 -85 -103 -85
-107 0 -4 36 -70 81 -147 44 -77 85 -148 90 -157 9 -16 3 -18 -60 -18 l-69 0
-62 110 c-34 61 -64 110 -66 110 -3 0 -16 -12 -29 -27 -22 -25 -24 -38 -25
-110 l0 -83 -60 0 -60 0 0 270 0 270 60 0 59 0 3 -102z m738 52 l0 -50 -115 0
-115 0 0 -55 0 -55 115 0 115 0 0 -50 0 -50 -115 0 -115 0 0 -65 0 -65 115 0
115 0 0 -50 0 -50 -175 0 -175 0 0 270 0 270 175 0 175 0 0 -50z m322 -105
l113 -155 3 155 3 155 59 0 60 0 0 -270 0 -270 -52 0 -53 1 -109 150 c-60 82
-113 152 -117 155 -5 3 -9 -65 -9 -150 l0 -156 -60 0 -60 0 0 270 0 270 54 0
55 0 113 -155z m981 -20 c32 -96 60 -175 62 -175 1 0 31 79 65 175 l63 175 63
0 c35 0 64 -3 64 -7 0 -5 -48 -126 -107 -271 l-108 -262 -50 2 -50 3 -97 260
c-53 143 -97 263 -98 268 0 4 30 7 68 7 l67 0 58 -175z m507 -45 l0 -220 110
0 110 0 0 -50 0 -50 -170 0 -170 0 0 270 0 270 60 0 60 0 0 -220z m640 170 l0
-50 -115 0 -115 0 0 -55 0 -55 115 0 115 0 0 -50 0 -50 -115 0 -115 0 0 -65 0
-65 115 0 115 0 0 -50 0 -50 -175 0 -175 0 0 270 0 270 175 0 175 0 0 -50z
m450 0 l0 -50 -115 0 -115 0 0 -55 0 -55 115 0 115 0 0 -50 0 -50 -115 0 -115
0 0 -65 0 -65 115 0 115 0 0 -50 0 -50 -175 0 -175 0 0 270 0 270 175 0 175 0
0 -50z"/>
<path d="M1482 2083 l3 -168 49 3 c58 3 116 33 139 72 26 44 23 148 -6 191
-29 44 -80 69 -140 69 l-47 0 2 -167z"/>
<path d="M3152 2188 l3 -63 39 2 c115 7 116 123 1 123 l-46 0 3 -62z"/>
<path d="M4189 2133 c-51 -131 -51 -133 11 -133 30 0 50 4 50 11 0 16 -41 149
-46 149 -3 0 -9 -12 -15 -27z"/>
<path d="M4764 2144 c-4 -10 -15 -41 -26 -67 -27 -72 -25 -77 30 -77 27 0 51
3 54 6 6 5 -36 142 -47 152 -2 3 -8 -4 -11 -14z"/>
<path d="M1341 1192 c-13 -37 -26 -73 -29 -79 -3 -10 11 -13 52 -13 31 0 56 4
56 8 0 13 -42 136 -49 144 -4 4 -17 -23 -30 -60z"/>
<path d="M1822 1288 l3 -63 42 1 c113 2 110 124 -2 124 l-46 0 3 -62z"/>
</g>
</svg>
