<?xml version="1.0" encoding="UTF-8"?>
<svg width="300px" height="81px" viewBox="0 0 300 81" version="1.1" xmlns="http://www.w3.org/2000/svg" xmlns:xlink="http://www.w3.org/1999/xlink">
    <title>Group 111</title>
    <defs>
        <linearGradient x1="20.6202443%" y1="46.4231456%" x2="100%" y2="53.5768562%" id="linearGradient-1">
            <stop stop-color="#99C556" offset="0%"></stop>
            <stop stop-color="#2F7141" offset="100%"></stop>
        </linearGradient>
    </defs>
    <g id="Page-1" stroke="none" stroke-width="1" fill="none" fill-rule="evenodd">
        <g id="Group-111" transform="translate(0.3711, 0.3237)">
            <path d="M39.9572983,0 L298.7861,0 L298.7861,0 L298.7861,79.9146 L39.9572983,79.9146 C17.8894918,79.9146 -5.75416393e-15,62.0251082 0,39.9573017 L0,39.9572983 C-2.70252686e-15,17.8894918 17.8894918,2.70252686e-15 39.9572983,0 Z" id="Rectangle" fill="url(#linearGradient-1)" fill-rule="nonzero"></path>
            <path d="M107.407906,34.48557 L101.611906,34.48557 L101.003906,32.51117 L94.929006,32.51117 L94.321506,34.48557 L88.524806,34.48557 L94.751806,17.60187 L101.180906,17.60187 L107.407906,34.48557 Z M99.636906,28.05607 L97.966606,22.61377 L96.295906,28.05607 L99.636906,28.05607 Z M119.835906,34.48557 L115.279906,34.48557 L115.279906,33.32117 C114.595906,34.18187 113.102906,34.78937 111.583906,34.78937 C109.761906,34.78937 107.381906,33.54897 107.381906,30.76457 C107.381906,27.72707 109.761906,26.86637 111.583906,26.86637 C113.178906,26.86637 114.621906,27.37267 115.279906,28.20797 L115.279906,26.94237 C115.279906,26.08167 114.494906,25.42357 113.001906,25.42357 C111.861906,25.42357 110.571906,25.87917 109.609906,26.61327 L108.065906,23.80357 C109.710906,22.48727 111.988906,21.95567 113.836906,21.95567 C116.873906,21.95567 119.835906,23.01887 119.835906,27.09417 L119.835906,34.48557 Z M113.482906,31.82777 C114.190906,31.82777 114.975906,31.59987 115.279906,31.16957 L115.279906,30.48617 C114.975906,30.05587 114.190906,29.82797 113.482906,29.82797 C112.722906,29.82797 111.887906,30.08117 111.887906,30.84057 C111.887906,31.59987 112.722906,31.82777 113.482906,31.82777 Z M135.190906,34.48557 L130.633906,34.48557 L130.633906,27.72707 C130.633906,26.46137 129.950906,25.98047 128.862906,25.98047 C127.824906,25.98047 127.292906,26.51197 126.912906,26.94237 L126.912906,34.48557 L122.356906,34.48557 L122.356906,22.25947 L126.912906,22.25947 L126.912906,23.65167 C127.621906,22.84167 128.963906,21.95567 131.114906,21.95567 C133.949906,21.95567 135.190906,23.67697 135.190906,25.80327 L135.190906,34.48557 Z M157.906906,34.48557 L153.350906,34.48557 L153.350906,27.34737 C153.350906,26.61327 152.970906,25.98047 151.958906,25.98047 C150.945906,25.98047 150.388906,26.58797 150.084906,26.94237 L150.084906,34.48557 L145.528906,34.48557 L145.528906,27.34737 C145.528906,26.61327 145.174906,25.98047 144.136906,25.98047 C143.149906,25.98047 142.592906,26.58797 142.288906,26.94237 L142.288906,34.48557 L137.732906,34.48557 L137.732906,22.25947 L142.288906,22.25947 L142.288906,23.65167 C142.820906,22.96817 144.364906,21.95567 146.338906,21.95567 C148.059906,21.95567 149.300906,22.58847 149.857906,24.10727 C150.565906,23.04417 152.160906,21.95567 154.135906,21.95567 C156.387906,21.95567 157.906906,23.09477 157.906906,25.62607 L157.906906,34.48557 Z M166.423906,34.78937 C162.601906,34.78937 159.614906,32.38467 159.614906,28.35987 C159.614906,24.81607 162.322906,21.95567 166.271906,21.95567 C169.866906,21.95567 172.625906,24.53757 172.625906,28.84077 L172.625906,29.77737 L164.322906,29.77737 C164.575906,30.56207 165.461906,31.32147 166.955906,31.32147 C167.638906,31.32147 169.157906,30.99237 169.764906,30.46087 L171.637906,33.27057 C170.422906,34.30837 168.246906,34.78937 166.423906,34.78937 Z M168.296906,26.89167 C168.170906,26.36017 167.739906,25.42357 166.271906,25.42357 C164.879906,25.42357 164.423906,26.33487 164.271906,26.89167 L168.296906,26.89167 Z M178.750906,34.48557 L174.193906,34.48557 L174.193906,17.60187 L178.750906,17.60187 L178.750906,34.48557 Z M193.843906,34.48557 L189.287906,34.48557 L189.287906,33.19467 C188.249906,34.35907 187.084906,34.78937 185.844906,34.78937 C182.883906,34.78937 180.452906,32.56177 180.452906,28.35987 C180.452906,24.30977 182.832906,21.95567 185.844906,21.95567 C187.084906,21.95567 188.325906,22.38597 189.287906,23.55037 L189.287906,17.60187 L193.843906,17.60187 L193.843906,34.48557 Z M187.388906,30.76457 C187.996906,30.76457 188.856906,30.46087 189.287906,29.92927 L189.287906,26.79047 C188.856906,26.25887 187.996906,25.98047 187.388906,25.98047 C186.148906,25.98047 185.110906,26.84107 185.110906,28.35987 C185.110906,29.87867 186.148906,30.76457 187.388906,30.76457 Z M202.341906,34.78937 C198.518906,34.78937 195.531906,32.38467 195.531906,28.35987 C195.531906,24.81607 198.240906,21.95567 202.189906,21.95567 C205.783906,21.95567 208.542906,24.53757 208.542906,28.84077 L208.542906,29.77737 L200.240906,29.77737 C200.493906,30.56207 201.379906,31.32147 202.872906,31.32147 C203.556906,31.32147 205.074906,30.99237 205.682906,30.46087 L207.555906,33.27057 C206.340906,34.30837 204.163906,34.78937 202.341906,34.78937 Z M204.214906,26.89167 C204.087906,26.36017 203.657906,25.42357 202.189906,25.42357 C200.797906,25.42357 200.341906,26.33487 200.189906,26.89167 L204.214906,26.89167 Z M222.945906,34.48557 L218.388906,34.48557 L218.388906,27.72707 C218.388906,26.46137 217.705906,25.98047 216.616906,25.98047 C215.579906,25.98047 215.047906,26.51197 214.667906,26.94237 L214.667906,34.48557 L210.111906,34.48557 L210.111906,22.25947 L214.667906,22.25947 L214.667906,23.65167 C215.376906,22.84167 216.718906,21.95567 218.869906,21.95567 C221.704906,21.95567 222.945906,23.67697 222.945906,25.80327 L222.945906,34.48557 Z M237.963906,34.78937 C233.634906,34.78937 231.103906,31.77707 231.103906,28.35987 C231.103906,24.94257 233.634906,21.95567 237.963906,21.95567 C242.317906,21.95567 244.848906,24.94257 244.848906,28.35987 C244.848906,31.77707 242.317906,34.78937 237.963906,34.78937 Z M237.963906,30.76457 C239.380906,30.76457 240.165906,29.72677 240.165906,28.35987 C240.165906,27.01827 239.380906,25.98047 237.963906,25.98047 C236.571906,25.98047 235.786906,27.01827 235.786906,28.35987 C235.786906,29.72677 236.571906,30.76457 237.963906,30.76457 Z M252.041906,34.48557 L247.484906,34.48557 L247.484906,26.20827 L245.459906,26.20827 L245.459906,22.25947 L247.484906,22.25947 L247.484906,21.70257 C247.484906,19.14597 249.433906,17.34877 252.142906,17.34877 C253.559906,17.34877 255.104906,17.75377 255.964906,18.66497 L254.319906,21.19627 C254.040906,20.86727 253.711906,20.71537 253.205906,20.71537 C252.623906,20.71537 252.041906,21.09507 252.041906,21.70257 L252.041906,22.25947 L254.521906,22.25947 L254.521906,26.20827 L252.041906,26.20827 L252.041906,34.48557 Z M110.420906,60.48557 L105.863906,60.48557 L105.863906,53.34737 C105.863906,52.61327 105.484906,51.98047 104.471906,51.98047 C103.459906,51.98047 102.902906,52.58797 102.598906,52.94237 L102.598906,60.48557 L98.042506,60.48557 L98.042506,53.34737 C98.042506,52.61327 97.688106,51.98047 96.650306,51.98047 C95.663106,51.98047 95.106206,52.58797 94.802406,52.94237 L94.802406,60.48557 L90.246106,60.48557 L90.246106,48.25947 L94.802406,48.25947 L94.802406,49.65167 C95.334006,48.96817 96.878106,47.95567 98.852506,47.95567 C100.573906,47.95567 101.813906,48.58847 102.370906,50.10727 C103.079906,49.04417 104.674906,47.95567 106.648906,47.95567 C108.901906,47.95567 110.420906,49.09477 110.420906,51.62607 L110.420906,60.48557 Z M118.936906,60.78937 C115.114906,60.78937 112.127906,58.38467 112.127906,54.35987 C112.127906,50.81607 114.836906,47.95567 118.785906,47.95567 C122.379906,47.95567 125.138906,50.53757 125.138906,54.84077 L125.138906,55.77737 L116.835906,55.77737 C117.089906,56.56207 117.975906,57.32147 119.468906,57.32147 C120.151906,57.32147 121.670906,56.99237 122.278906,56.46087 L124.151906,59.27057 C122.936906,60.30837 120.759906,60.78937 118.936906,60.78937 Z M120.810906,52.89167 C120.683906,52.36017 120.253906,51.42357 118.785906,51.42357 C117.392906,51.42357 116.937906,52.33487 116.785906,52.89167 L120.810906,52.89167 Z M132.681906,60.78937 C128.858906,60.78937 125.871906,58.38467 125.871906,54.35987 C125.871906,50.81607 128.580906,47.95567 132.529906,47.95567 C136.123906,47.95567 138.882906,50.53757 138.882906,54.84077 L138.882906,55.77737 L130.580906,55.77737 C130.833906,56.56207 131.719906,57.32147 133.212906,57.32147 C133.896906,57.32147 135.414906,56.99237 136.022906,56.46087 L137.895906,59.27057 C136.680906,60.30837 134.503906,60.78937 132.681906,60.78937 Z M134.554906,52.89167 C134.427906,52.36017 133.997906,51.42357 132.529906,51.42357 C131.137906,51.42357 130.681906,52.33487 130.529906,52.89167 L134.554906,52.89167 Z M145.007906,60.48557 L140.451906,60.48557 L140.451906,48.25947 L145.007906,48.25947 L145.007906,49.60107 C145.767906,48.71507 147.361906,47.90507 148.754906,47.90507 L148.754906,52.25887 C148.526906,52.18297 148.146906,52.13237 147.716906,52.13237 C146.754906,52.13237 145.513906,52.38547 145.007906,52.99297 L145.007906,60.48557 Z M172.637906,60.48557 L167.676906,60.48557 L165.676906,53.65107 L163.702906,60.48557 L158.740906,60.48557 L155.196906,48.25947 L159.879906,48.25947 L161.499906,54.99267 L163.651906,48.25947 L167.726906,48.25947 L169.853906,54.99267 L171.473906,48.25947 L176.181906,48.25947 L172.637906,60.48557 Z M183.109906,60.78937 C179.286906,60.78937 176.300906,58.38467 176.300906,54.35987 C176.300906,50.81607 179.008906,47.95567 182.957906,47.95567 C186.551906,47.95567 189.310906,50.53757 189.310906,54.84077 L189.310906,55.77737 L181.008906,55.77737 C181.261906,56.56207 182.147906,57.32147 183.640906,57.32147 C184.324906,57.32147 185.843906,56.99237 186.450906,56.46087 L188.323906,59.27057 C187.108906,60.30837 184.931906,60.78937 183.109906,60.78937 Z M184.982906,52.89167 C184.855906,52.36017 184.425906,51.42357 182.957906,51.42357 C181.565906,51.42357 181.109906,52.33487 180.957906,52.89167 L184.982906,52.89167 Z M196.018906,60.78937 C193.309906,60.78937 191.816906,59.49837 191.816906,56.94177 L191.816906,52.20827 L189.791906,52.20827 L189.791906,48.25947 L191.816906,48.25947 L191.816906,44.91817 L196.372906,44.91817 L196.372906,48.25947 L198.853906,48.25947 L198.853906,52.20827 L196.372906,52.20827 L196.372906,55.62547 C196.372906,56.25837 196.777906,56.76457 197.384906,56.76457 C197.789906,56.76457 198.194906,56.63807 198.296906,56.53677 L199.106906,59.97937 C198.625906,60.40967 197.562906,60.78937 196.018906,60.78937 Z M206.518906,60.78937 C202.696906,60.78937 199.709906,58.38467 199.709906,54.35987 C199.709906,50.81607 202.418906,47.95567 206.366906,47.95567 C209.961906,47.95567 212.720906,50.53757 212.720906,54.84077 L212.720906,55.77737 L204.417906,55.77737 C204.670906,56.56207 205.556906,57.32147 207.050906,57.32147 C207.733906,57.32147 209.252906,56.99237 209.860906,56.46087 L211.733906,59.27057 C210.518906,60.30837 208.341906,60.78937 206.518906,60.78937 Z M208.391906,52.89167 C208.265906,52.36017 207.835906,51.42357 206.366906,51.42357 C204.974906,51.42357 204.519906,52.33487 204.367906,52.89167 L208.391906,52.89167 Z M227.122906,60.48557 L222.566906,60.48557 L222.566906,53.72707 C222.566906,52.46137 221.882906,51.98047 220.794906,51.98047 C219.756906,51.98047 219.225906,52.51197 218.845906,52.94237 L218.845906,60.48557 L214.289906,60.48557 L214.289906,48.25947 L218.845906,48.25947 L218.845906,49.65167 C219.554906,48.84167 220.895906,47.95567 223.047906,47.95567 C225.882906,47.95567 227.122906,49.67697 227.122906,51.80327 L227.122906,60.48557 Z M231.011906,54.81547 C230.606906,54.25857 230.327906,53.42327 230.327906,52.41077 C230.327906,49.65167 233.162906,49.17067 233.162906,48.38597 C233.162906,48.08227 232.960906,47.85447 232.175906,47.85447 C231.517906,47.85447 230.606906,48.25947 229.973906,48.91757 L227.138906,45.65217 C228.606906,44.08277 230.783906,43.34877 232.757906,43.34877 C236.175906,43.34877 238.326906,44.91817 238.326906,47.42407 C238.326906,50.99327 234.732906,51.24637 234.732906,52.96767 C234.732906,53.39797 234.884906,53.75237 235.010906,53.90427 L231.011906,54.81547 Z M232.909906,60.78937 C231.441906,60.78937 230.201906,59.54897 230.201906,58.08087 C230.201906,56.61267 231.441906,55.37237 232.909906,55.37237 C234.377906,55.37237 235.618906,56.61267 235.618906,58.08087 C235.618906,59.54897 234.377906,60.78937 232.909906,60.78937 Z" id="Shape" fill="#FFFFFF" fill-rule="nonzero"></path>
            <path d="M58.966006,36.13337 C58.690506,36.40897 57.889706,37.18387 56.563706,38.45817 C55.237806,39.73247 53.825706,41.08437 52.327506,42.51367 C50.829306,43.94297 49.486106,45.22587 48.297806,46.36247 C47.109606,47.49907 46.515506,48.06727 46.515506,48.06727 C46.240006,48.34287 45.921406,48.55807 45.559806,48.71307 C45.198106,48.86807 44.827906,48.94557 44.449006,48.94557 C44.070206,48.94557 43.699906,48.86807 43.338306,48.71307 C42.976706,48.55807 42.658106,48.34287 42.382506,48.06727 C42.382506,48.06727 41.779806,47.49907 40.574406,46.36247 C39.368906,45.22587 38.025706,43.94297 36.544806,42.51367 C35.063806,41.08437 33.660306,39.73247 32.334306,38.45817 C31.008306,37.18387 30.207606,36.40897 29.932006,36.13337 C29.381006,35.58237 29.096806,34.88487 29.079606,34.04107 C29.062406,33.19727 29.346506,32.46537 29.932006,31.84547 C30.517506,31.25997 31.180506,30.95857 31.921006,30.94137 C32.661506,30.92417 33.393406,31.22547 34.116606,31.84547 L44.449006,41.76457 L54.781406,31.84547 C55.470206,31.22547 56.193506,30.92417 56.951206,30.94137 C57.708906,30.95857 58.380506,31.25997 58.966006,31.84547 C59.517106,32.46537 59.784006,33.19727 59.766806,34.04107 C59.749606,34.88487 59.482706,35.58237 58.966006,36.13337 Z" id="Path" fill="#FFFFFF" fill-rule="nonzero"></path>
            <line x1="76.417406" y1="19.47927" x2="76.417406" y2="60.43547" id="Path" stroke="#FFFFFF" stroke-width="0.998933"></line>
        </g>
    </g>
</svg>