<svg width="180" height="180" viewBox="0 0 180 180" fill="none" xmlns="http://www.w3.org/2000/svg">
<path d="M73.6788 79.8144C73.6788 82.575 73.4365 84.2106 72.7442 85.1365C72.7113 85.1913 72.6704 85.2408 72.623 85.2836C68.0365 85.5 63.5365 85.7683 59.1577 86.149C62.0134 83.3365 64.8 80.576 67.6298 77.8673C69.3605 76.1365 71.2471 74.5615 73.0471 72.9173C73.1228 72.9672 73.1951 73.0221 73.2634 73.0817C72.5278 74.449 70.9875 76.3442 70.2865 77.6596C70.4509 77.8413 72.8826 79.0096 73.6615 79.7971C73.6615 79.7971 73.6788 79.7971 73.6788 79.8144Z" fill="#8BC53F"/>
<path d="M125.939 80.9827C124.736 82.9644 123.663 84.5394 122.582 86.2615C112.959 85.4481 102.799 84.9289 92.1634 84.8769C87.5077 84.8769 82.9471 84.8769 78.473 85.0413C79.1242 83.8587 79.547 82.5641 79.7192 81.225C79.9764 78.6865 80.0458 76.1324 79.9269 73.5837C79.8317 72.4154 79.7711 71.55 78.9577 70.8404C78.4557 70.3817 74.1375 68.0192 74.25 67.8202C74.3625 67.6212 75.1153 67.9846 75.4528 68.1663C115.987 89.9221 131.98 57.7817 134.463 46.6702C131.72 63.5539 117.779 72.0692 117.779 72.4327C120.232 75.5257 122.964 78.3876 125.939 80.9827V80.9827Z" fill="#8BC53F"/>
<path d="M43.624 56.8817C43.6172 57.1523 43.5307 57.4148 43.3755 57.6365C43.2202 57.8582 43.003 58.0292 42.751 58.128C42.4991 58.2269 42.2236 58.2492 41.959 58.1923C41.6944 58.1354 41.4525 58.0017 41.2635 57.8079C41.0745 57.6142 40.9469 57.369 40.8965 57.1031C40.8462 56.8372 40.8754 56.5623 40.9804 56.3129C41.0855 56.0635 41.2618 55.8506 41.4873 55.7009C41.7128 55.5511 41.9774 55.4712 42.248 55.4712C42.431 55.4734 42.6117 55.5117 42.7799 55.5838C42.9481 55.6559 43.1004 55.7605 43.2282 55.8914C43.356 56.0224 43.4567 56.1773 43.5246 56.3472C43.5925 56.5171 43.6263 56.6988 43.624 56.8817V56.8817Z" fill="#8BC53F"/>
<path d="M134.801 82.4971C134.801 84.1154 133.278 86.2789 133.018 87.3173L128.96 86.876L132.802 82.2029C134.394 79.8317 128.812 77.6856 127.739 76.7769L128.034 76.3269C129.998 77.3827 132.058 78.2567 133.762 79.7885C134.134 80.1285 134.421 80.5502 134.601 81.0203C134.781 81.4904 134.85 81.996 134.801 82.4971V82.4971Z" fill="#8BC53F"/>
<path d="M180 24.6981V95.6596C166.189 92.3027 152.199 89.7284 138.098 87.949C139.041 86.2788 140.435 83.8731 141.343 82.2548C141.523 81.7666 141.594 81.2452 141.552 80.7267C141.51 80.2082 141.356 79.705 141.101 79.2519C139.829 77.4173 139.933 73.9904 139.993 73.4192C140.158 71.8442 141.291 70.7625 142.165 69.724C144.233 67.3467 145.841 64.606 146.908 61.6413C150.612 53.8529 149.037 44.974 148.742 43.4683C150.222 42.6029 153.744 41.0019 154.506 36.8827C154.69 35.8979 154.674 34.8861 154.459 33.9077C154.243 32.9293 153.832 32.0045 153.251 31.1885C151.65 29.2673 150.283 30.5308 151.667 32.9192C153.917 37.2462 149.071 38.9769 147.539 38.6481C146.96 37.4971 146.536 36.476 145.982 35.4981C134.913 16.0788 118.021 13.4827 116.351 13.0673C109.428 11.3365 92.9856 11.6048 82.4625 15.3519C79.0813 16.4825 75.7797 17.8385 72.5798 19.4106C69.525 20.951 66.4615 22.4913 63.4933 24.1962C59.4499 26.5606 55.5568 29.1733 51.8365 32.0192C54.6577 32.7029 64.0731 42.9231 64.151 43.2692C63.7183 42.8971 57.825 37.4452 55.0038 35.5933C52.6933 34.1048 51.3519 32.1836 45.7183 34.849C43.8231 35.7144 33.6029 41.0019 26.6798 41.3221L25.3471 42.0058C27.9433 43.5635 30.0029 45.1212 32.3308 46.2721C42.0663 51.1096 52.875 51.4644 54.2337 51.6115C56.0964 51.8635 57.8397 52.6719 59.2356 53.9308C58.924 54.0346 58.7337 54.1817 58.6558 54.1298C56.5359 52.9806 54.1411 52.4358 51.7327 52.5548C49.4099 52.6488 47.0844 52.454 44.8096 51.975C42.4731 51.4211 40.05 50.9019 37.6962 50.1231C37.4074 50.3999 37.1571 50.7143 36.9519 51.0577C36.2077 52.3125 36.2423 53.8183 35.7058 55.151C34.3904 58.4308 32.9798 61.5808 30.2452 64.0817H26.9567C28.0052 67.166 29.5869 70.0423 31.6298 72.5798C31.6298 72.5798 31.6298 72.5798 31.6298 72.5798C32.2993 72.8066 32.989 72.9689 33.6894 73.0644C34.8058 73.151 42.6981 74.4317 50.1317 70.9442C51.5307 70.2536 52.8836 69.4731 54.1817 68.6077C54.7534 68.2953 55.3825 68.102 56.031 68.0395C56.6795 67.977 57.334 68.0467 57.9548 68.2442C59.201 68.4952 60.4471 70.1481 60.1269 70.8404C59.8067 71.5327 57.5308 76.1279 56.6654 77.651C55.3846 79.9442 54.3029 82.3587 52.8837 84.574C52.3689 85.1594 52.1075 85.925 52.1567 86.7029C34.5857 88.4753 17.1584 91.4622 0 95.6423V0H155.285C155.674 0 156.063 0 156.436 0C162.598 0.272944 168.434 2.84323 172.795 7.20465C177.157 11.5661 179.727 17.4025 180 23.5644C180 23.9365 180 24.3087 180 24.6981Z" fill="#8BC53F"/>
<path d="M180 105.819V180H24.7154C24.3433 180 23.9712 180 23.599 180C17.4246 179.737 11.5738 177.166 7.20391 172.796C2.83399 168.426 0.263184 162.575 0 156.401C0 156.029 0 155.657 0 155.267V105.819C59.0987 91.1119 120.901 91.1119 180 105.819V105.819Z" fill="#01763D"/>
<path d="M138.098 87.9317C139.041 86.2615 140.435 83.8558 141.343 82.2375C141.523 81.7493 141.594 81.2279 141.552 80.7094C141.51 80.1909 141.356 79.6877 141.101 79.2346C139.829 77.4 139.933 73.9731 139.993 73.4019C140.158 71.8269 141.291 70.7452 142.165 69.7067C144.233 67.3294 145.841 64.5887 146.908 61.624C150.612 53.8356 149.037 44.9567 148.742 43.451C150.222 42.5856 153.744 40.9846 154.506 36.8654C154.69 35.8806 154.674 34.8688 154.459 33.8904C154.243 32.912 153.832 31.9872 153.251 31.1712C151.65 29.25 150.283 30.5135 151.667 32.9019C153.917 37.2288 149.071 38.9596 147.539 38.6308C146.96 37.4798 146.536 36.4587 145.982 35.4808C134.913 16.0788 118.021 13.4827 116.351 13.0673C109.428 11.3365 92.9856 11.6048 82.4625 15.3519C79.0813 16.4825 75.7797 17.8385 72.5798 19.4106C69.525 20.951 66.4615 22.4913 63.4933 24.1962C59.4499 26.5606 55.5568 29.1733 51.8365 32.0192C54.6577 32.7029 64.0731 42.9231 64.151 43.2692C63.7183 42.8971 57.825 37.4452 55.0038 35.5933C52.6933 34.1048 51.3519 32.1837 45.7183 34.849C43.8231 35.7144 33.6029 41.0019 26.6798 41.3221L25.3471 42.0058C27.9433 43.5635 30.0029 45.1212 32.3308 46.2721C42.0663 51.1096 52.875 51.4644 54.2337 51.6115C56.0964 51.8635 57.8397 52.6719 59.2356 53.9308C58.924 54.0346 58.7337 54.1817 58.6558 54.1298C56.5359 52.9806 54.1411 52.4358 51.7327 52.5548C49.4099 52.6488 47.0844 52.454 44.8096 51.975C42.4731 51.4212 40.05 50.9019 37.6962 50.1231C37.4074 50.3999 37.1571 50.7143 36.9519 51.0577C36.2077 52.3125 36.2423 53.8183 35.7058 55.151C34.3904 58.4308 32.9798 61.5808 30.2452 64.0817H26.9567C28.0052 67.166 29.5869 70.0423 31.6298 72.5798C31.6298 72.5798 31.6298 72.5798 31.6298 72.5798C32.2993 72.8066 32.989 72.9689 33.6894 73.0644C34.8058 73.151 42.6981 74.4317 50.1317 70.9442C51.5307 70.2536 52.8836 69.4731 54.1817 68.6077C54.7534 68.2953 55.3825 68.102 56.031 68.0395C56.6795 67.977 57.334 68.0467 57.9548 68.2442C59.201 68.4952 60.4471 70.1481 60.1269 70.8404C59.8067 71.5327 57.5308 76.1279 56.6654 77.651C55.3846 79.9442 54.3029 82.3587 52.8837 84.574C52.3689 85.1594 52.1075 85.925 52.1567 86.7029C34.5857 88.4753 17.1584 91.4622 0 95.6423V105.819C59.0987 91.1118 120.901 91.1118 180 105.819V95.6423C166.189 92.2854 152.199 89.7111 138.098 87.9317V87.9317ZM42.2481 58.2923C41.9677 58.2992 41.6917 58.2223 41.4552 58.0716C41.2187 57.9208 41.0325 57.703 40.9205 57.446C40.8084 57.1889 40.7754 56.9042 40.8259 56.6284C40.8764 56.3525 41.0079 56.0979 41.2037 55.8972C41.3995 55.6964 41.6508 55.5586 41.9253 55.5013C42.1998 55.444 42.4852 55.4699 42.745 55.5755C43.0047 55.6812 43.2271 55.8619 43.3837 56.0946C43.5403 56.3272 43.624 56.6013 43.624 56.8817C43.6263 57.0647 43.5926 57.2463 43.5246 57.4162C43.4567 57.5862 43.356 57.741 43.2282 57.872C43.1005 58.003 42.9481 58.1075 42.78 58.1797C42.6118 58.2518 42.431 58.29 42.2481 58.2923V58.2923ZM72.7442 85.1192C72.7113 85.174 72.6705 85.2235 72.6231 85.2663C68.0365 85.4827 63.5365 85.751 59.1577 86.1317C62.0135 83.3192 64.8 80.5587 67.6298 77.85C69.3606 76.1192 71.2471 74.5442 73.0471 72.9C73.1228 72.9499 73.1951 73.0049 73.2635 73.0644C72.5279 74.4317 70.9875 76.3269 70.2865 77.6423C70.451 77.824 72.8827 78.9923 73.6615 79.7798C73.7135 82.575 73.4365 84.2106 72.7442 85.1365V85.1192ZM125.939 80.9827C124.737 82.9644 123.663 84.5394 122.582 86.2615C112.959 85.4481 102.799 84.9288 92.1635 84.8769C87.5077 84.8769 82.9471 84.8769 78.4731 85.0413C79.1243 83.8587 79.547 82.564 79.7192 81.225C79.9764 78.6865 80.0459 76.1324 79.9269 73.5837C79.8317 72.4154 79.7712 71.55 78.9577 70.8404C78.4558 70.3817 74.1375 68.0192 74.25 67.8202C74.3625 67.6212 75.1154 67.9846 75.4529 68.1663C115.988 89.9221 131.98 57.7817 134.463 46.6702C131.72 63.5538 117.779 72.0692 117.779 72.4327C120.233 75.5196 122.965 78.3758 125.939 80.9654V80.9827ZM133.018 87.3L128.96 86.8587L132.802 82.1856C134.394 79.8144 128.813 77.6683 127.739 76.7596L128.034 76.3096C129.998 77.3654 132.058 78.2394 133.763 79.7712C134.128 80.1066 134.411 80.5212 134.591 80.9833C134.771 81.4453 134.843 81.9424 134.801 82.4365C134.818 84.1154 133.269 86.2788 133.018 87.3173V87.3Z" fill="white"/>
<path d="M34.9875 119.423H39.2019C42.8538 119.423 46.9904 121.31 46.9904 126.346C46.9904 131.383 42.9404 133.425 39.0461 133.425H34.9875V119.423ZM38.2413 130.768H38.4144C41.4259 130.768 43.5115 129.626 43.5115 126.563C43.5115 123.655 41.7808 122.106 38.8817 122.106H38.2413V130.768Z" fill="white"/>
<path d="M54.9779 133.685C50.9885 133.685 49.2837 131.244 49.2837 126.831V119.423H52.5375V127.212C52.5375 129.721 53.4981 130.924 55.0212 130.924C56.5443 130.924 57.5048 129.721 57.5048 127.212V119.423H60.7587V126.839C60.7587 131.244 59.0539 133.685 54.9779 133.685Z" fill="white"/>
<path d="M69.3 133.685C65.3106 133.685 63.6058 131.244 63.6058 126.831V119.423H66.851V127.212C66.851 129.721 67.8115 130.924 69.3346 130.924C70.8577 130.924 71.8269 129.678 71.8269 127.212V119.423H75.0721V126.839C75.0721 131.244 73.3673 133.685 69.3 133.685Z" fill="white"/>
<path d="M77.8846 119.423H82.4539C84.7645 119.423 87.7154 120.6 87.7154 123.689C87.7086 124.566 87.4232 125.417 86.9005 126.12C86.3777 126.823 85.6448 127.342 84.8077 127.601L89.0308 133.46H84.9808L81.3462 127.973H81.2077V133.451H77.8846V119.423ZM81.1385 125.299H82.0039C83.3106 125.299 84.2712 124.832 84.2712 123.75C84.2605 123.516 84.2025 123.287 84.1008 123.077C83.9991 122.866 83.8557 122.678 83.6794 122.525C83.5031 122.371 83.2975 122.255 83.0749 122.183C82.8524 122.111 82.6176 122.084 82.3846 122.106H81.1731L81.1385 125.299Z" fill="white"/>
<path d="M94.3269 130.76H100.488V133.451H90V131.72L95.6336 122.097H90.1558V119.423H100.021V121.041L94.3269 130.76Z" fill="white"/>
<path d="M111.107 133.451L110.285 130.985H105.655L104.789 133.451H101.198L107.013 119.423H109.61L114.802 133.46L111.107 133.451ZM106.598 128.397H109.402L108.061 124.347L106.598 128.397Z" fill="white"/>
<path d="M125.801 133.451L124.936 130.985H120.306L119.44 133.451H115.875L121.716 119.423H124.312L129.505 133.46L125.801 133.451ZM121.292 128.397H124.096L122.755 124.347L121.292 128.397Z" fill="white"/>
<path d="M140.686 133.451H138.358L134.524 123.75V133.46H131.279V119.423H135.969L139.561 128.761L143.29 119.423H147.86V133.46H144.614V123.819L140.686 133.451Z" fill="white"/>
<path d="M23.9193 156.635H21.3231L16.1308 142.598H19.8606L22.9068 151.702L26.1779 142.598H29.7606L23.9193 156.635Z" fill="white"/>
<path d="M38.276 156.635L37.4106 154.168H32.8241L31.9587 156.635H28.35L34.1914 142.598H36.7875L41.9798 156.635H38.276ZM33.75 151.589H36.5539L35.2125 147.539L33.75 151.589Z" fill="white"/>
<path d="M43.7538 142.607H48.3231C50.6337 142.607 53.576 143.792 53.576 146.873C53.5705 147.75 53.2856 148.602 52.7627 149.305C52.2398 150.008 51.5061 150.527 50.6683 150.785C51.9144 152.515 53.9567 155.362 54.9 156.643H50.85L47.1375 151.165H46.999V156.635H43.7538V142.607ZM46.999 148.483H47.8644C49.1625 148.483 50.1317 148.024 50.1317 146.934C50.121 146.7 50.063 146.471 49.9613 146.26C49.8596 146.05 49.7163 145.862 49.54 145.708C49.3636 145.555 49.158 145.438 48.9355 145.366C48.7129 145.294 48.4781 145.268 48.2452 145.289H46.999V148.483Z" fill="white"/>
<path d="M63.4673 148.318L68.2961 156.643H64.549L61.2778 150.906L60.075 152.308V156.635H56.8298V142.607H60.075V147.842L64.3413 142.607H68.2528L63.4673 148.318Z" fill="white"/>
<path d="M69.8019 156.635V142.607H79.0269V145.289H73.0471V148.076H79.0269V150.767H73.0471V153.952H79.0269V156.635H69.8019Z" fill="white"/>
<path d="M90.6144 156.635L84.6779 148.491V156.635H81.4327V142.607H84.2971L90.2942 150.785V142.607H93.5394V156.635H90.6144Z" fill="white"/>
<path d="M101.25 145.09C100.506 145.09 99.7269 145.497 99.7269 146.293C99.7269 147.314 100.982 147.557 101.89 147.877C103.872 148.561 106.295 149.487 106.295 152.55C106.295 155.613 103.413 156.877 100.843 156.877C99.8108 156.875 98.7902 156.657 97.8479 156.235C96.9056 155.813 96.0627 155.197 95.374 154.428L97.4769 152.36C98.5586 153.363 99.3807 154.151 100.887 154.151C101.864 154.151 102.851 153.684 102.851 152.602C102.851 151.52 101.544 151.062 100.255 150.594C98.3942 149.893 96.4471 149.011 96.4471 146.311C96.4471 143.611 98.8356 142.373 101.181 142.373C102.923 142.377 104.61 142.989 105.949 144.104L104.132 146.388C103.346 145.641 102.33 145.184 101.25 145.09V145.09Z" fill="white"/>
<path d="M115.096 156.635H112.5L107.264 142.598H110.994L114.04 151.702L117.303 142.598H120.894L115.096 156.635Z" fill="white"/>
<path d="M122.417 156.635V142.607H125.663V153.952H131.279V156.635H122.417Z" fill="white"/>
<path d="M132.785 156.635V142.607H142.01V145.289H136.03V148.076H142.01V150.767H136.03V153.952H142.01V156.635H132.785Z" fill="white"/>
<path d="M144.415 156.635V142.607H153.64V145.289H147.661V148.076H153.64V150.767H147.661V153.952H153.64V156.635H144.415Z" fill="white"/>
<path d="M160.875 145.09C160.131 145.09 159.352 145.497 159.352 146.293C159.352 147.314 160.615 147.557 161.515 147.877C163.497 148.561 165.929 149.487 165.929 152.55C165.929 155.613 163.038 156.877 160.477 156.877C159.443 156.876 158.421 156.657 157.478 156.235C156.534 155.813 155.689 155.197 154.999 154.428L157.102 152.36C158.184 153.363 159.006 154.151 160.512 154.151C161.498 154.151 162.476 153.684 162.476 152.602C162.476 151.52 161.178 151.062 159.88 150.594C158.011 149.893 156.072 149.011 156.072 146.311C156.072 143.611 158.452 142.373 160.797 142.373C162.542 142.378 164.231 142.99 165.574 144.104L163.748 146.388C162.965 145.643 161.952 145.185 160.875 145.09Z" fill="white"/>
</svg>
