<?xml version="1.0" encoding="UTF-8"?>
<svg width="189px" height="186px" viewBox="0 0 189 186" version="1.1" xmlns="http://www.w3.org/2000/svg" xmlns:xlink="http://www.w3.org/1999/xlink">
    <title>play</title>
    <defs>
        <rect id="path-1" x="0" y="0" width="189" height="186"></rect>
    </defs>
    <g id="Page-1" stroke="none" stroke-width="1" fill="none" fill-rule="evenodd">
        <g id="play">
            <mask id="mask-2" fill="white">
                <use xlink:href="#path-1"></use>
            </mask>
            <g id="Mask"></g>
            <g mask="url(#mask-2)" fill="#FFFFFF" fill-rule="nonzero" id="Shape">
                <g transform="translate(14.2031, 13)">
                    <path d="M80.1406,0 C58.8841,0 38.4995,8.446 23.4732,23.4732 C8.4468,38.5003 7.10542736e-15,58.8857 7.10542736e-15,80.1405 C7.10542736e-15,101.395 8.446,121.782 23.4732,136.808 C38.5003,151.834 58.8857,160.281 80.1406,160.281 C101.3959,160.281 121.7819,151.835 136.8079,136.808 C151.8339,121.781 160.2809,101.395 160.2809,80.1405 C160.2809,58.8857 151.8349,38.4995 136.8079,23.4732 C121.7809,8.4468 101.3959,0 80.1406,0 Z M105.7979,82.3075 L67.0055,104.71 C66.2292,105.155 65.2775,105.155 64.5011,104.71 C63.7248,104.259 63.2489,103.433 63.2489,102.537 L63.2489,57.7469 C63.2489,56.8515 63.7248,56.0251 64.5011,55.5743 C65.2775,55.1297 66.2291,55.1297 67.0055,55.5743 L105.7979,77.9703 L105.7979,77.9766 C106.5749,78.4211 107.0509,79.2476 107.0509,80.1429 C107.0509,81.0383 106.5749,81.8647 105.7979,82.3093 L105.7979,82.3075 Z"></path>
                </g>
            </g>
        </g>
    </g>
</svg>