<svg width="38" height="38" viewBox="0 0 38 38" fill="none" xmlns="http://www.w3.org/2000/svg">
<path d="M33.4609 16.4494H21.7887V4.77716C21.7887 3.35684 20.6299 2.19666 19.2082 2.19666C17.7865 2.19666 16.6277 3.35688 16.6277 4.77716V16.4479L4.95551 16.4493C3.53519 16.4493 2.375 17.6081 2.375 19.0298C2.375 20.4516 3.53523 21.6103 4.95551 21.6103H16.6262V33.281C16.6262 34.7028 17.7864 35.8615 19.2067 35.8615C20.6285 35.8615 21.7872 34.7013 21.7872 33.281L21.7887 21.6103H33.4594C34.8812 21.6103 36.0399 20.4501 36.0399 19.0298C36.0414 17.6081 34.8812 16.4494 33.4609 16.4494Z" fill="#01763D"/>
</svg>
