<svg width="33" height="26" viewBox="0 0 33 26" fill="none" xmlns="http://www.w3.org/2000/svg">
<path id="&#226;&#128;&#156;" opacity="0.5" d="M0.722656 17.0319C0.722656 10.5073 4.28969 4.67874 9.68375 0.937988L14.4688 4.76573C11.6848 6.24462 8.46573 9.89838 7.68272 13.0302C7.94373 12.8562 8.72674 12.7692 9.42275 12.7692C12.7288 12.7692 15.3388 15.292 15.3388 19.0328C15.3388 22.7735 12.2068 25.9053 8.46573 25.9053C4.37669 25.9053 0.722656 22.6865 0.722656 17.0319ZM18.4708 17.0319C18.4708 10.5073 21.9509 4.67874 27.3449 0.937988L32.217 4.76573C29.433 6.24462 26.1269 9.89838 25.4309 13.0302C25.6919 12.8562 26.4749 12.7692 27.1709 12.7692C30.39 12.7692 33 15.292 33 19.0328C33 22.7735 29.955 25.9053 26.1269 25.9053C22.0379 25.9053 18.4708 22.6865 18.4708 17.0319Z" fill="white"/>
</svg>
