<?xml version="1.0" encoding="UTF-8"?>
<svg width="88px" height="86px" viewBox="0 0 88 86" version="1.1" xmlns="http://www.w3.org/2000/svg" xmlns:xlink="http://www.w3.org/1999/xlink">
    <title>Group 2</title>
    <g id="Page-1" stroke="none" stroke-width="1" fill="none" fill-rule="evenodd">
        <g id="Group-2" transform="translate(0.6856, 0.286)">
            <path d="M86.9253801,42.7329566 C86.9253801,66.2059566 67.8973801,85.2329566 44.4253801,85.2329566 C20.9533801,85.2329566 1.92538007,66.2059566 1.92538007,42.7329566 C1.92538007,19.2609566 20.9533801,0.233356562 44.4253801,0.233356562 C67.8973801,0.233356562 86.9253801,19.2609566 86.9253801,42.7329566 Z" id="Path" fill="#FFCA4D" fill-rule="nonzero"></path>
            <path d="M56.6583801,63.7659566 C56.2153801,63.7659566 55.7663801,63.7119566 55.3373801,63.6109566 C42.1173801,60.4139566 30.0373801,53.6359566 20.4183801,44.0229566 C10.7983801,34.4039566 4.02138007,22.3239566 0.830380073,9.10395656 C0.461380073,7.61595656 0.736380073,6.04095656 1.58038007,4.76685656 C2.43938007,3.47305656 3.78638007,2.58145656 5.31438007,2.31335656 L14.1833801,0.751356562 C17.0863801,0.255256562 19.8753801,2.08535656 20.5723801,4.94115656 C21.3163801,7.87695656 22.3083801,10.7399566 23.5283801,13.5079566 C24.7753801,16.1759566 23.7233801,19.3539566 21.1353801,20.7549566 L20.5523801,21.0769566 C19.6743801,21.5529566 19.0303801,22.3769566 18.7823801,23.3429566 C18.5343801,24.2879566 18.6953801,25.2999566 19.2243801,26.1179566 C24.1653801,33.7469566 30.6543801,40.2489566 38.2693801,45.2029566 C39.0943801,45.7329566 40.1003801,45.8939566 41.0453801,45.6459566 C42.0303801,45.3979566 42.8683801,44.7469566 43.3513801,43.8489566 L43.6663801,43.2659566 C45.0743801,40.6649566 48.2653801,39.6119566 50.9393801,40.8729566 C53.7083801,42.0929566 56.5773801,43.0849566 59.5073801,43.8289566 C62.3693801,44.5259566 64.1993801,47.3149566 63.6963801,50.2179566 L62.1413801,59.0859566 C61.8733801,60.6219566 60.9813801,61.9689566 59.6883801,62.8199566 C58.7893801,63.4239566 57.7373801,63.7449566 56.6513801,63.7449566 L56.6583801,63.7659566 Z M55.8063801,61.6939566 C56.7653801,61.9289566 57.7703801,61.7479566 58.5883801,61.2049566 C59.4263801,60.6679566 60.0033801,59.8169566 60.1843801,58.8379566 L61.7393801,49.9689566 C62.0543801,48.0859566 60.8543801,46.2759566 58.9973801,45.8399566 C55.9543801,45.0619566 52.9913801,44.0229566 50.1213801,42.7429566 C48.3923801,41.9319566 46.3213801,42.6019566 45.4023801,44.2779566 L45.0873801,44.8679566 C44.3363801,46.2419566 43.0423801,47.2409566 41.5273801,47.6299566 C40.0533801,48.0189566 38.4773801,47.7639566 37.1973801,46.9329566 C29.3403801,41.8179566 22.6503801,35.1079566 17.5623801,27.2369566 C16.7243801,25.9569566 16.4693801,24.3819566 16.8583801,22.8999566 C17.2473801,21.3849566 18.2463801,20.0979566 19.6203801,19.3469566 L20.2103801,19.0319566 C21.8793801,18.0999566 22.5493801,16.0419566 21.7523801,14.3129566 C20.4713801,11.4439566 19.4323801,8.48095656 18.6553801,5.43725656 C18.2123801,3.58025656 16.4023801,2.38705656 14.5253801,2.69545656 L5.65638007,4.25065656 C4.65738007,4.41825656 3.77938007,5.00145656 3.22338007,5.84595656 C2.68738007,6.67095656 2.51238007,7.67595656 2.74038007,8.62795656 C5.84438007,21.4989566 12.4473801,33.2639566 21.8053801,42.6289566 C31.1703801,51.9939566 42.9353801,58.5899566 55.8063801,61.6939566 Z" id="Shape" fill="#4F4F4F" fill-rule="nonzero"></path>
            <path d="M57.5883801,64.4359566 L56.6583801,64.4359566 C56.1623801,64.4359566 55.6623801,64.3759566 55.1843801,64.2639566 L55.1803801,64.2629566 C41.8403801,61.0359566 29.6513801,54.1979566 19.9443801,44.4979566 C10.2383801,34.7909566 3.39938007,22.6019566 0.179380073,9.26295656 C-0.233619927,7.59295656 0.0743800733,5.82595656 1.02238007,4.39635656 C1.98038007,2.95165656 3.48738007,1.95345656 5.19938007,1.65305656 L14.0713801,0.090656562 C17.3193801,-0.464443438 20.4413801,1.58265656 21.2233801,4.77935656 C21.9573801,7.67495656 22.9363801,10.4989566 24.1393801,13.2319566 C25.5313801,16.2189566 24.3523801,19.7739566 21.4573801,21.3429566 C21.4563801,21.3439566 21.4553801,21.3439566 21.4553801,21.3449566 L20.8723801,21.6659566 C20.1573801,22.0529566 19.6333801,22.7249566 19.4323801,23.5099566 L19.4313801,23.5129566 C19.2303801,24.2769566 19.3613801,25.0949566 19.7883801,25.7539566 C24.6773801,33.3029566 31.0983801,39.7379566 38.6343801,44.6399566 C39.3013801,45.0679566 40.1133801,45.1969566 40.8753801,44.9969566 L40.8823801,44.9959566 C41.6853801,44.7929566 42.3683801,44.2629566 42.7613801,43.5319566 L42.7613801,43.5299566 L43.0773801,42.9469566 C44.6523801,40.0369566 48.2223801,38.8559566 51.2183801,40.2629566 C53.9493801,41.4659566 56.7803801,42.4439566 59.6693801,43.1779566 C62.8723801,43.9599566 64.9203801,47.0819566 64.3573801,50.3319566 L62.8023801,59.2019566 C62.5023801,60.9189566 61.5053801,62.4259566 60.0593801,63.3789566 C59.3043801,63.8849566 58.4513801,64.2149566 57.5593801,64.3479566 L57.5883801,64.4359566 Z M57.3433801,63.7019566 C57.1373801,63.7279566 56.9293801,63.7419566 56.7203801,63.7449566 C56.6993801,63.7449566 56.6793801,63.7449566 56.6583801,63.7449566 C56.6563801,63.7449566 56.6543801,63.7449566 56.6513801,63.7449566 L56.6583801,63.7659566 C56.6563801,63.7659566 56.6543801,63.7659566 56.6513801,63.7659566 C56.6323801,63.7659566 56.6123801,63.7649566 56.5923801,63.7649566 C56.3743801,63.7629566 56.1543801,63.7469566 55.9363801,63.7189566 C55.7343801,63.6939566 55.5343801,63.6569566 55.3373801,63.6109566 C42.1183801,60.4139566 30.0383801,53.6359566 20.4183801,44.0229566 C10.7983801,34.4039566 4.02138007,22.3239566 0.830380073,9.10395656 C0.461380073,7.61595656 0.736380073,6.04095656 1.58138007,4.76685656 C2.43938007,3.47305656 3.78638007,2.58145656 5.31538007,2.31335656 L14.1843801,0.751456562 C17.0863801,0.255356562 19.8753801,2.08545656 20.5723801,4.94115656 C21.3163801,7.87695656 22.3093801,10.7399566 23.5293801,13.5079566 C24.7753801,16.1769566 23.7233801,19.3539566 21.1353801,20.7549566 L20.5523801,21.0769566 C19.6743801,21.5529566 19.0303801,22.3769566 18.7823801,23.3429566 C18.5343801,24.2879566 18.6953801,25.2999566 19.2253801,26.1179566 C24.1653801,33.7469566 30.6553801,40.2489566 38.2703801,45.2029566 C39.0943801,45.7329566 40.1003801,45.8939566 41.0453801,45.6459566 C42.0313801,45.3979566 42.8693801,44.7469566 43.3513801,43.8489566 L43.6663801,43.2659566 C45.0743801,40.6649566 48.2653801,39.6119566 50.9403801,40.8729566 C53.7083801,42.0929566 56.5783801,43.0849566 59.5073801,43.8289566 C62.3693801,44.5259566 64.2003801,47.3149566 63.6973801,50.2179566 L62.1423801,59.0859566 C61.8733801,60.6219566 60.9823801,61.9689566 59.6883801,62.8199566 C58.9823801,63.2949566 58.1813801,63.5949566 57.3433801,63.7019566 Z M55.9643801,61.0419566 L55.9663801,61.0429566 C56.7413801,61.2329566 57.5543801,61.0869566 58.2183801,60.6459566 L58.2273801,60.6399566 C58.9093801,60.2039566 59.3773801,59.5129566 59.5243801,58.7199566 C59.5253801,58.7189566 59.5253801,58.7179566 59.5253801,58.7169566 L61.0783801,49.8589566 C61.0783801,49.8579566 61.0783801,49.8569566 61.0793801,49.8569566 C61.3343801,48.3209566 60.3553801,46.8469566 58.8443801,46.4929566 L58.8323801,46.4899566 C55.7503801,45.7019566 52.7523801,44.6509566 49.8493801,43.3549566 L49.8373801,43.3499566 C48.4283801,42.6889566 46.7413801,43.2349566 45.9923801,44.5969566 C45.9923801,44.5979566 45.9913801,44.5989566 45.9903801,44.5999566 L45.6763801,45.1889566 C44.8353801,46.7279566 43.3893801,47.8439566 41.6973801,48.2789566 C40.0393801,48.7149566 38.2703801,48.4279566 36.8323801,47.4949566 C28.8973801,42.3289566 22.1393801,35.5509566 17.0003801,27.6029566 C16.0593801,26.1639566 15.7743801,24.3949566 16.2103801,22.7319566 C16.6453801,21.0379566 17.7623801,19.5989566 19.2993801,18.7589566 L19.3053801,18.7559566 L19.8893801,18.4439566 C21.2493801,17.6809566 21.7933801,16.0029566 21.1433801,14.5939566 L21.1403801,14.5859566 C19.8453801,11.6829566 18.7933801,8.68395656 18.0063801,5.60315656 L18.0033801,5.59265656 C17.6433801,4.08125656 16.1693801,3.10665656 14.6383801,3.35635656 L5.76838007,4.91185656 C4.95838007,5.04775656 4.24138007,5.52135656 3.78438007,6.21295656 C3.34938007,6.88395656 3.20838007,7.69995656 3.39238007,8.47195656 C6.46738007,21.2219566 13.0093801,32.8769566 22.2803801,42.1549566 C31.5583801,51.4329566 43.2133801,57.9679566 55.9643801,61.0419566 Z M21.8063801,42.6289566 C12.4483801,33.2639566 5.84438007,21.4989566 2.74138007,8.62795656 C2.51338007,7.67595656 2.68738007,6.67095656 3.22338007,5.84595656 C3.78038007,5.00155656 4.65838007,4.41825656 5.65738007,4.25065656 L14.5263801,2.69545656 C16.4033801,2.38705656 18.2133801,3.58035656 18.6553801,5.43725656 C19.4333801,8.48095656 20.4723801,11.4439566 21.7523801,14.3129566 C22.5503801,16.0419566 21.8803801,18.0999566 20.2103801,19.0319566 L19.6203801,19.3469566 C18.2463801,20.0979566 17.2473801,21.3849566 16.8593801,22.8999566 C16.4703801,24.3819566 16.7243801,25.9569566 17.5623801,27.2379566 C22.6503801,35.1079566 29.3413801,41.8179566 37.1973801,46.9329566 C38.4783801,47.7639566 40.0533801,48.0189566 41.5283801,47.6299566 C43.0433801,47.2409566 44.3373801,46.2419566 45.0873801,44.8679566 L45.4033801,44.2779566 C46.3213801,42.6019566 48.3923801,41.9319566 50.1223801,42.7429566 C52.9913801,44.0229566 55.9543801,45.0619566 58.9983801,45.8399566 C60.8543801,46.2759566 62.0543801,48.0859566 61.7393801,49.9699566 L60.1843801,58.8379566 C60.0033801,59.8169566 59.4273801,60.6689566 58.5893801,61.2049566 C57.7713801,61.7479566 56.7653801,61.9289566 55.8073801,61.6939566 C42.9363801,58.5899566 31.1713801,51.9939566 21.8063801,42.6289566 Z" id="Shape" fill="#4F4F4F"></path>
            <path d="M61.7233801,28.4569566 C61.1803801,28.4569566 60.7383801,28.0149566 60.7383801,27.4719566 C60.8453801,21.1709566 58.4453801,15.0839566 54.0683801,10.5449566 C49.6903801,6.00695656 43.6913801,3.39925656 37.3893801,3.27855656 C36.8463801,3.27855656 36.4043801,2.83615656 36.4043801,2.29315656 C36.4043801,1.75015656 36.8463801,1.30775656 37.3893801,1.30775656 C44.2203801,1.42165656 50.7233801,4.25055656 55.4693801,9.15795656 C60.2223801,14.0649566 62.8233801,20.6609566 62.7163801,27.4919566 C62.7023801,28.0279566 62.2663801,28.4569566 61.7303801,28.4569566 L61.7233801,28.4569566 Z" id="Path" fill="#4F4F4F" fill-rule="nonzero"></path>
            <path d="M60.0683801,27.4609566 L60.0683801,27.4609566 C60.1723801,21.3369566 57.8403801,15.4219566 53.5863801,11.0109566 C49.3333801,6.60195656 43.5053801,4.06765656 37.3823801,3.94895656 C36.4733801,3.94505656 35.7343801,3.20405656 35.7343801,2.29325656 C35.7343801,1.37995656 36.4763801,0.637456562 37.3903801,0.637456562 L37.4013801,0.637456562 L37.4013801,0.637456562 C44.4103801,0.754456562 51.0813801,3.65705656 55.9513801,8.69095656 C60.8283801,13.7269566 63.4963801,20.4949566 63.3863801,27.5029566 L63.3863801,27.5089566 L63.3863801,27.5089566 C63.3643801,28.4049566 62.6343801,29.1279566 61.7313801,29.1279566 L61.7243801,29.1279566 C60.8113801,29.1279566 60.0683801,28.3849566 60.0683801,27.4719566 L60.0683801,27.4609566 Z M55.4693801,9.15795656 C50.7233801,4.25065656 44.2213801,1.42175656 37.3903801,1.30775656 C36.8473801,1.30775656 36.4043801,1.75025656 36.4043801,2.29325656 C36.4043801,2.83625656 36.8473801,3.27865656 37.3903801,3.27865656 C43.6913801,3.39935656 49.6913801,6.00695656 54.0683801,10.5449566 C58.4463801,15.0839566 60.8463801,21.1709566 60.7383801,27.4719566 C60.7383801,28.0149566 61.1813801,28.4579566 61.7243801,28.4579566 L61.7313801,28.4579566 C62.2673801,28.4579566 62.7033801,28.0279566 62.7163801,27.4919566 C62.8233801,20.6609566 60.2223801,14.0649566 55.4693801,9.15795656 Z" id="Shape" fill="#4F4F4F"></path>
            <path d="M53.8083801,28.2769566 C53.2653801,28.2769566 52.8233801,27.8339566 52.8233801,27.2909566 C52.8833801,23.0879566 51.2813801,19.0389566 48.3583801,16.0219566 C45.4353801,13.0059566 41.4403801,11.2689566 37.2373801,11.1959566 C36.6943801,11.1959566 36.2523801,10.7529566 36.2523801,10.2099566 C36.2523801,9.66695656 36.6943801,9.22495656 37.2373801,9.22495656 C41.9703801,9.29895656 46.4753801,11.2489566 49.7733801,14.6549566 C53.0643801,18.0539566 54.8743801,22.6249566 54.7943801,27.3509566 C54.7603801,27.8739566 54.3313801,28.2769566 53.8083801,28.2769566 Z" id="Path" fill="#4F4F4F" fill-rule="nonzero"></path>
            <path d="M52.1533801,27.2809566 L52.1533801,27.2809566 C52.2113801,23.2549566 50.6763801,19.3779566 47.8773801,16.4889566 C45.0793801,13.6009566 41.2543801,11.9379566 37.2313801,11.8659566 C36.3213801,11.8619566 35.5823801,11.1209566 35.5823801,10.2099566 C35.5823801,9.29695656 36.3243801,8.55395656 37.2373801,8.55395656 L37.2483801,8.55395656 L37.2483801,8.55495656 C42.1593801,8.63095656 46.8333801,10.6549566 50.2553801,14.1879566 L50.2553801,14.1879566 C53.6703801,17.7149566 55.5483801,22.4579566 55.4643801,27.3629566 L55.4643801,27.3789566 L55.4633801,27.3939566 C55.4073801,28.2699566 54.6863801,28.9469566 53.8093801,28.9469566 C52.8963801,28.9469566 52.1533801,28.2039566 52.1533801,27.2909566 L52.1533801,27.2809566 Z M37.2373801,11.1959566 C41.4413801,11.2689566 45.4363801,13.0059566 48.3593801,16.0219566 C51.2813801,19.0389566 52.8843801,23.0879566 52.8233801,27.2909566 C52.8233801,27.8339566 53.2663801,28.2769566 53.8093801,28.2769566 C54.3323801,28.2769566 54.7613801,27.8739566 54.7943801,27.3509566 C54.8753801,22.6249566 53.0653801,18.0539566 49.7733801,14.6549566 C46.4753801,11.2489566 41.9703801,9.29895656 37.2373801,9.22495656 C36.6943801,9.22495656 36.2523801,9.66695656 36.2523801,10.2099566 C36.2523801,10.7529566 36.6943801,11.1959566 37.2373801,11.1959566 Z" id="Shape" fill="#4F4F4F"></path>
            <path d="M45.8843801,28.1759566 C45.3413801,28.1759566 44.8983801,27.7339566 44.8983801,27.1909566 C44.9523801,25.0859566 44.1613801,23.0539566 42.7063801,21.5329566 C41.2523801,20.0179566 39.2473801,19.1399566 37.1493801,19.1059566 C36.6063801,19.1059566 36.1643801,18.6639566 36.1643801,18.1209566 C36.1643801,17.5779566 36.6063801,17.1349566 37.1493801,17.1349566 C39.7773801,17.1819566 42.2713801,18.2749566 44.1013801,20.1649566 C45.9243801,22.0559566 46.9233801,24.5899566 46.8833801,27.2169566 C46.8693801,27.7539566 46.4273801,28.1889566 45.8913801,28.1830179 L45.8843801,28.1759566 Z" id="Path" fill="#4F4F4F" fill-rule="nonzero"></path>
            <path d="M45.8913801,28.1830179 C46.4273801,28.1889566 46.8703801,27.7539566 46.8833801,27.2169566 C46.9233801,24.5899566 45.9253801,22.0559566 44.1013801,20.1649566 C42.2713801,18.2749566 39.7773801,17.1819566 37.1493801,17.1349566 C36.6063801,17.1349566 36.1643801,17.5779566 36.1643801,18.1209566 C36.1643801,18.6639566 36.6063801,19.1059566 37.1493801,19.1059566 C39.2483801,19.1389566 41.2523801,20.0179566 42.7073801,21.5329566 C44.1613801,23.0539566 44.9533801,25.0859566 44.8993801,27.1909566 C44.8993801,27.7339566 45.3413801,28.1759566 45.8843801,28.1759566 L45.8913801,28.1830179 Z M45.5783801,28.8179566 C44.8113801,28.6739566 44.2293801,27.9989566 44.2293801,27.1909566 L44.2293801,27.1819566 L44.2293801,27.1729566 C44.2783801,25.2489566 43.5553801,23.3899566 42.2233801,21.9959566 C40.8923801,20.6109566 39.0603801,19.8079566 37.1433801,19.7759566 C36.2333801,19.7729566 35.4943801,19.0319566 35.4943801,18.1209566 C35.4943801,17.2069566 36.2363801,16.4649566 37.1493801,16.4649566 L37.1613801,16.4649566 L37.1613801,16.4649566 C39.9683801,16.5149566 42.6313801,17.6819566 44.5833801,19.6989566 L44.5843801,19.6999566 C46.5303801,21.7179566 47.5963801,24.4229566 47.5533801,27.2279566 L47.5533801,27.2339566 L47.5533801,27.2339566 C47.5313801,28.1289566 46.7953801,28.8639566 45.8833801,28.8530784 L45.6103801,28.8499566 L45.5783801,28.8179566 Z" id="Shape" fill="#4F4F4F"></path>
        </g>
    </g>
</svg>