<?xml version="1.0" encoding="UTF-8"?>
<svg width="86px" height="101px" viewBox="0 0 86 101" version="1.1" xmlns="http://www.w3.org/2000/svg" xmlns:xlink="http://www.w3.org/1999/xlink">
    <title>Group 5</title>
    <g id="Page-1" stroke="none" stroke-width="1" fill="none" fill-rule="evenodd">
        <g id="Group-5" transform="translate(0.592, 0.2232)" fill-rule="nonzero">
            <path d="M85,57.9818028 C85,81.4538028 65.972,100.481803 42.5,100.481803 C19.028,100.481803 0,81.4538028 0,57.9818028 C0,34.5098028 19.028,15.4818028 42.5,15.4818028 C65.972,15.4818028 85,34.5098028 85,57.9818028 Z" id="Path" fill="#FFCA4D"></path>
            <path d="M74.745,37.2368028 C74.372,35.6368028 73.676,34.1538028 72.74,32.8568028 C70.858,30.2528028 68.024,28.5308028 65.187,27.7298028 C58.583,26.1768028 55.739,27.8648028 55.739,27.8648028 C55.769,21.1168028 53.561,15.7628028 53.561,15.7628028 L53.421,15.3948028 C53.228,14.9098028 53.053,14.4158028 52.845,13.9318028 L52.229,12.4878028 C51.372,10.5778028 50.408,8.71280281 49.235,6.96480281 C48.06,5.22580281 46.697,3.57580281 44.991,2.25180281 C44.135,1.59980281 43.195,1.03580281 42.166,0.629802805 C41.138,0.237802805 40.026,-0.0111971948 38.896,0.000387567258 C38.333,0.00180280521 37.766,0.0598028052 37.206,0.186802805 C36.924,0.246802805 36.648,0.328802805 36.369,0.429802805 C36.09,0.527802805 35.786,0.681802805 35.535,0.838802805 C35.28,0.991802805 35.051,1.16880281 34.821,1.34680281 C34.613,1.54180281 34.379,1.71680281 34.191,1.93280281 C33.995,2.14180281 33.795,2.34380281 33.628,2.57680281 C33.456,2.80380281 33.273,3.02680281 33.138,3.27680281 C32.82,3.75380281 32.598,4.27180281 32.368,4.79080281 C32.201,5.32380281 31.996,5.85580281 31.918,6.40780281 C31.87,6.67980281 31.802,6.95480281 31.773,7.22580281 L31.712,8.04780281 C31.646,8.59880281 31.713,9.13280281 31.723,9.67680281 C31.863,11.8348028 32.467,13.8818028 33.155,15.8218028 C33.471,16.6988028 33.711,17.5858028 33.856,18.4748028 C33.985,19.3638028 34.007,20.2518028 33.916,21.1228028 C33.746,22.8668028 33.054,24.5238028 32.075,26.0538028 C31.1,27.5898028 29.854,29.0018028 28.539,30.3848028 C27.221,31.7678028 25.819,33.1118028 24.447,34.5388028 C23.763,35.2518028 23.08,35.9758028 22.428,36.7438028 C22.098,37.1258028 21.776,37.5158028 21.463,37.9158028 C21.305,38.1208028 21.153,38.3108028 20.992,38.5288028 C20.825,38.7618028 20.662,38.9958028 20.521,39.2268028 C19.933,40.1538028 19.495,41.0858028 19.088,42.0198028 C19.046,42.1158028 19.009,42.2148028 18.968,42.3108028 C18.672,42.2558028 18.372,42.2098028 18.07,42.1718028 C15.631,41.8688028 12.983,42.1018028 10.558,43.2038028 C9.362,43.7668028 8.231,44.5048028 7.258,45.4118028 C6.304,46.3258028 5.448,47.3418028 4.791,48.4438028 C3.434,50.6318028 2.633,53.0038028 2.116,55.3238028 C1.836,56.4878028 1.698,57.6428028 1.536,58.7928028 C1.488,59.3648028 1.442,59.9318028 1.397,60.4998028 C1.376,60.7818028 1.356,61.0668028 1.335,61.3488028 C1.33,61.6298028 1.32,61.9098028 1.314,62.1868028 C1.303,62.7438028 1.291,63.3008028 1.283,63.8538028 C1.283,64.4098028 1.313,64.9668028 1.332,65.5178028 C1.341,65.7928028 1.354,66.0678028 1.363,66.3428028 C1.373,66.6178028 1.413,66.8948028 1.437,67.1688028 C1.494,67.7158028 1.55,68.2588028 1.602,68.8028028 C1.915,70.9678028 2.414,73.0828028 3.171,75.0658028 C3.92,77.0548028 4.982,78.8958028 6.272,80.4608028 C7.559,82.0288028 9.091,83.2988028 10.687,84.2148028 C12.285,85.1378028 13.935,85.7158028 15.495,86.0478028 C18.633,86.7068028 21.39,86.4868028 23.554,86.0368028 C24.138,85.9198028 24.678,85.7828028 25.182,85.6308028 C26.022,86.3188028 26.91,86.9448028 27.838,87.4948028 C27.838,87.4948028 50.534,96.8058028 66.817,79.5628028 C67.664,79.0428028 68.459,78.4118028 69.159,77.6628028 C70.446,76.2748028 71.304,74.4958028 71.687,72.7318028 C71.796,72.2888028 71.834,71.8518028 71.906,71.4078028 C71.932,70.9728028 71.981,70.5348028 71.974,70.1098028 C71.989,69.2498028 71.907,68.4208028 71.788,67.6068028 C71.655,66.8018028 71.485,66.0158028 71.26,65.2618028 C71.169,64.9628028 71.073,64.6688028 70.97,64.3748028 C71.199,64.1818028 71.429,63.9768028 71.654,63.7458028 C72.433,62.9788028 73.13,62.0688028 73.636,61.0348028 C74.146,60.0068028 74.455,58.8678028 74.554,57.7508028 C74.657,56.6288028 74.563,55.5328028 74.353,54.5128028 C74.143,53.4888028 73.808,52.5368028 73.418,51.6478028 C73.024,50.7588028 72.57,49.9208028 72.067,49.1418028 C71.817,48.7498028 71.553,48.3708028 71.279,48.0008028 C71.266,47.9858028 71.253,47.9678028 71.244,47.9538028 C71.681,47.4778028 72.1,46.9838028 72.471,46.4518028 C72.932,45.8168028 73.339,45.1358028 73.69,44.4298028 C74.045,43.7228028 74.339,42.9868028 74.566,42.2188028 C74.789,41.4518028 74.978,40.6518028 74.997,39.7458028 C75.037,38.8718028 74.914,38.0458028 74.745,37.2368028 Z M21.912,84.5228028 C19.328,84.3508028 16.883,83.7338028 14.8,82.6888028 C13.763,82.1568028 12.817,81.5318028 11.972,80.8248028 C11.764,80.6438028 11.57,80.4508028 11.37,80.2648028 C11.273,80.1698028 11.166,80.0838028 11.076,79.9848028 L10.804,79.6828028 C10.629,79.4798028 10.436,79.2938028 10.271,79.0828028 C10.11,78.8708028 9.949,78.6548028 9.789,78.4468028 C9.617,78.2438028 9.485,78.0098028 9.342,77.7888028 C9.203,77.5638028 9.054,77.3468028 8.922,77.1208028 C8.802,76.8858028 8.677,76.6518028 8.557,76.4208028 C8.433,76.1908028 8.309,75.9638028 8.214,75.7158028 C8.017,75.2268028 7.78,74.7688028 7.628,74.2648028 C7.461,73.7698028 7.273,73.2918028 7.157,72.7768028 C6.869,71.7828028 6.678,70.7608028 6.504,69.7518028 C6.435,69.2408028 6.363,68.7368028 6.295,68.2328028 C6.253,67.7228028 6.212,67.2168028 6.171,66.7138028 C6.115,66.2168028 6.115,65.7068028 6.098,65.2098028 C6.087,64.7088028 6.051,64.2168028 6.057,63.7218028 C6.062,63.2268028 6.068,62.7318028 6.07,62.2448028 C6.072,61.9988028 6.073,61.7568028 6.074,61.5158028 C6.087,61.2768028 6.101,61.0378028 6.114,60.8028028 C6.137,60.3288028 6.16,59.8588028 6.184,59.3928028 C6.219,58.9328028 6.275,58.4798028 6.315,58.0308028 C6.337,57.8068028 6.359,57.5828028 6.378,57.3588028 C6.4,57.1378028 6.442,56.9228028 6.477,56.7058028 C6.542,56.2738028 6.607,55.8458028 6.673,55.4228028 C7.004,53.7628028 7.442,52.2288028 8.029,50.8678028 C9.193,48.1418028 11.077,46.2708028 13.198,45.2448028 C14.955,44.3858028 16.761,44.0518028 18.338,43.9348028 C18.231,44.2358028 18.128,44.5358028 18.024,44.8368028 C16.787,48.6248028 16.049,52.4758028 15.686,56.3508028 C15.33,60.2208028 15.368,64.1208028 15.95,67.9688028 C16.523,71.8058028 17.684,75.6128028 19.641,79.0578028 C20.637,80.7638028 21.806,82.3888028 23.198,83.8098028 C23.443,84.0598028 23.695,84.3058028 23.951,84.5478028 C23.267,84.5748028 22.583,84.5658028 21.912,84.5228028 Z M71.2400203,39.8998028 C71.238,40.2228028 71.19,40.6218028 71.117,41.0038028 C71.048,41.3898028 70.937,41.7798028 70.821,42.1618028 C70.575,42.9278028 70.246,43.6628028 69.851,44.3538028 C69.456,45.0408028 68.992,45.6808028 68.489,46.2778028 C67.987,46.8748028 67.42,47.4008028 66.84,47.9018028 C66.539,48.1388028 66.242,48.3768028 65.936,48.5958028 C65.617,48.8008028 65.319,49.0338028 64.994,49.2128028 C63.717,49.9908028 62.374,50.5818028 61.043,51.0458028 C58.365,51.9338028 55.78,52.3528028 53.501,52.5518028 C51.213,52.7448028 49.227,52.7458028 47.607,52.7188028 C45.984,52.6678028 44.724,52.6008028 43.878,52.5268028 C43.025,52.4648028 42.581,52.4318028 42.581,52.4318028 C45.589,53.1408028 48.624,53.6708028 51.668,53.8818028 C53.191,53.9718028 54.715,54.0348028 56.237,53.9488028 C56.999,53.9348028 57.754,53.8438028 58.515,53.7798028 C58.895,53.7378028 59.269,53.6738028 59.648,53.6208028 L60.211,53.5358028 L60.773,53.4248028 C61.145,53.3418028 61.523,53.2848028 61.894,53.1828028 C62.265,53.0848028 62.635,52.9858028 63.002,52.8878028 C63.367,52.7668028 63.733,52.6498028 64.094,52.5298028 C64.459,52.4128028 64.809,52.2508028 65.169,52.1158028 C65.979,51.7788028 66.767,51.3778028 67.525,50.9308028 C67.716,51.1788028 67.9,51.4338028 68.072,51.6908028 C68.456,52.2548028 68.8,52.8378028 69.085,53.4178028 C69.665,54.5818028 70.031,55.7608028 70.109,56.8428028 C70.187,57.9288028 69.955,58.8968028 69.476,59.8028028 C69.213,60.2478028 68.918,60.6838028 68.54,61.0828028 C68.366,61.2898028 68.128,61.4948028 67.928,61.7008028 C67.703,61.8938028 67.492,62.0998028 67.259,62.2818028 C65.418,63.7808028 63.262,64.8478028 61.171,65.6098028 C59.073,66.3688028 57.01,66.8488028 55.112,67.1068028 C51.302,67.6428028 48.165,67.3398028 46.089,66.8508028 C45.048,66.6058028 44.267,66.3228028 43.742,66.1168028 C43.224,65.8908028 42.956,65.7728028 42.956,65.7728028 C44.577,67.0428028 46.531,67.8928028 48.526,68.4578028 C50.529,69.0308028 52.597,69.2988028 54.651,69.3678028 C56.704,69.4298028 58.745,69.2708028 60.741,68.9078028 C61.737,68.7188028 62.721,68.4858028 63.692,68.1958028 C64.658,67.8988028 65.609,67.5488028 66.534,67.1368028 C66.637,67.0888028 66.74,67.0378028 66.843,66.9898028 C66.965,67.4048028 67.075,67.8208028 67.161,68.2308028 C67.389,69.3148028 67.46,70.3708028 67.379,71.3478028 C67.22,73.3068028 66.385,74.8998028 64.984,76.0868028 C64.829,76.2498028 64.626,76.3718028 64.443,76.5108028 C64.251,76.6398028 64.081,76.7968028 63.872,76.9068028 C63.668,77.0248028 63.464,77.1428028 63.263,77.2568028 C63.16,77.3118028 63.067,77.3778028 62.956,77.4298028 L62.632,77.5778028 C62.201,77.7738028 61.783,77.9838028 61.328,78.1278028 C60.881,78.2828028 60.453,78.4628028 59.994,78.5688028 C58.214,79.1158028 56.433,79.3588028 54.812,79.5838028 C51.545,79.9718028 48.844,79.9528028 46.992,79.9918028 C45.138,79.9698028 44.111,79.9768028 44.111,79.9768028 C47.529,80.8988028 50.949,81.5748028 54.376,81.8208028 L55.017,81.8708028 L55.658,81.8858028 C56.089,81.8938028 56.519,81.9008028 56.945,81.9088028 C57.372,81.9288028 57.802,81.8828028 58.23,81.8708028 C58.657,81.8448028 59.086,81.8408028 59.515,81.7908028 C60.051,81.7348028 60.589,81.6598028 61.121,81.5708028 C61.081,81.6318028 61.044,81.6928028 61.003,81.7538028 C60.321,82.7388028 59.342,83.5858028 58.194,84.2558028 C57.047,84.9338028 55.739,85.4448028 54.365,85.8248028 C52.988,86.2048028 51.55,86.4558028 50.092,86.6288028 C47.16,86.9368028 44.164,86.9248028 41.186,86.7268028 C39.712,86.6318028 38.314,86.4728028 36.927,86.1908028 C35.548,85.9078028 34.214,85.5248028 32.939,85.0288028 C31.799,84.5818028 30.715,84.0388028 29.696,83.4048028 C29.813,83.3028028 29.877,83.2428028 29.877,83.2428028 C29.796,83.2888028 29.716,83.3268028 29.639,83.3678028 C28.404,82.5958028 27.269,81.7008028 26.261,80.6748028 C24.399,78.7978028 22.975,76.5128028 21.939,74.0588028 C20.899,71.6018028 20.243,68.9808028 19.861,66.3378028 C19.482,63.6908028 19.377,61.0128028 19.475,58.3738028 C19.573,55.7338028 19.873,53.1268028 20.353,50.6028028 C20.792,48.3088028 21.373,46.0638028 22.146,43.9848028 L22.427,43.2578028 C22.867,42.1758028 23.352,41.1738028 23.95,40.3538028 C24.646,39.3868028 25.418,38.4588028 26.222,37.5468028 C27.835,35.7228028 29.581,33.9828028 31.236,32.1178028 C32.879,30.2528028 34.467,28.2438028 35.544,25.8728028 C36.079,24.6938028 36.465,23.4288028 36.64,22.1358028 C36.82,20.8468028 36.784,19.5428028 36.578,18.3108028 C36.372,17.0758028 36.015,15.9068028 35.568,14.8078028 C35.212,13.8318028 34.816,12.8818028 34.588,11.9158028 C34.076,9.99880281 33.892,8.07080281 34.256,6.35480281 C34.46,5.50880281 34.785,4.71680281 35.245,4.03480281 C35.369,3.87080281 35.471,3.69280281 35.616,3.54580281 C35.748,3.39180281 35.88,3.23780281 36.029,3.10580281 C36.307,2.83180281 36.644,2.57180281 36.92,2.43180281 C37.04,2.36780281 37.233,2.29280281 37.412,2.23480281 C37.594,2.17180281 37.786,2.12480281 37.977,2.08480281 C38.365,2.00380281 38.764,1.96380281 39.163,1.95880281 C39.961,1.96080281 40.759,2.09980281 41.523,2.36180281 C42.286,2.62380281 43.01,3.00380281 43.687,3.45280281 C44.364,3.90280281 45,4.41680281 45.584,4.98180281 C46.758,6.10480281 47.757,7.36880281 48.628,8.66380281 C48.628,8.66380281 55.641,18.4448028 49.759,35.4858028 C49.759,35.4858028 47.202,36.1358028 43.502,35.2858028 C43.502,35.2858028 49.575,41.8368028 59.798,35.5238028 C58.109,35.1188028 56.625,34.8188028 55.273,34.6248028 C55.447,34.3828028 55.625,34.1488028 55.821,33.9318028 C56.417,33.2648028 57.098,32.7358028 57.839,32.3518028 C59.327,31.5898028 61.078,31.4448028 62.936,31.8078028 C63.17,31.8488028 63.404,31.8928028 63.637,31.9328028 C63.861,31.9938028 64.085,32.0538028 64.309,32.1148028 C64.767,32.2118028 65.175,32.4018028 65.606,32.5468028 C66.424,32.9038028 67.215,33.3008028 67.879,33.8278028 C68.561,34.3388028 69.17,34.9248028 69.655,35.5938028 C70.147,36.2518028 70.545,36.9718028 70.823,37.7178028 C71.096,38.4568028 71.242,39.2288028 71.2400203,39.8998028 Z" id="Shape" fill="#4F4F4F"></path>
        </g>
    </g>
</svg>