<?xml version="1.0" encoding="UTF-8"?>
<svg width="96px" height="98px" viewBox="0 0 96 98" version="1.1" xmlns="http://www.w3.org/2000/svg" xmlns:xlink="http://www.w3.org/1999/xlink">
    <title>Group 3</title>
    <g id="Page-1" stroke="none" stroke-width="1" fill="none" fill-rule="evenodd">
        <g id="Group-3" transform="translate(0.883, 0.4407)" fill-rule="nonzero">
            <path d="M94.245,54.98425 C94.245,78.45625 74.955,97.48425 51.161,97.48425 C27.366,97.48425 8.076,78.45625 8.076,54.98425 C8.076,31.51225 27.366,12.48425 51.161,12.48425 C74.955,12.48425 94.245,31.51225 94.245,54.98425 Z" id="Path" fill="#FFCA4D"></path>
            <path d="M62.764,14.65725 L47.821,6.03325 L37.563,0.11025 C37.315,-0.03675 37.003,-0.03675 36.745,0.11025 L0.404,21.09525 C0.156,21.24225 0,21.50925 0,21.80225 L0,63.77425 C0,64.06825 0.156,64.33425 0.404,64.48125 L36.745,85.46725 C36.993,85.61425 37.306,85.61425 37.563,85.46725 L73.904,64.48125 C74.152,64.33425 74.308,64.06825 74.308,63.77425 L74.308,21.79325 C74.308,21.49925 74.152,21.23325 73.904,21.08625 L62.764,14.64825 L62.764,14.65725 Z M69.055,22.80425 L37.563,40.98825 C37.315,41.13525 37.003,41.13525 36.745,40.98825 L28.167,36.03825 C27.626,35.72625 27.626,34.94525 28.167,34.62425 L59.66,16.43925 C59.908,16.29225 60.22,16.29225 60.477,16.43925 L69.055,21.38925 C69.597,21.70125 69.597,22.48225 69.055,22.80425 Z M14.575,31.29025 L22.51,35.87325 C22.758,36.01925 22.914,36.28625 22.914,36.58025 L22.914,52.26625 C22.914,52.89125 22.235,53.28625 21.693,52.97325 L13.758,48.39025 C13.51,48.24425 13.354,47.97725 13.354,47.68325 L13.354,31.99725 C13.354,31.37225 14.033,30.97725 14.575,31.29025 Z M56.161,15.35525 L24.668,33.54025 C24.42,33.68725 24.108,33.68725 23.851,33.54025 L15.925,28.96625 C15.383,28.65425 15.383,27.87325 15.925,27.55225 L47.417,9.36725 C47.665,9.22025 47.978,9.22025 48.235,9.36725 L56.161,13.95025 C56.702,14.26225 56.702,15.04325 56.161,15.36425 L56.161,15.35525 Z M43.909,6.86925 C44.451,7.18125 44.451,7.96225 43.909,8.28325 L12.013,26.70725 L11.434,26.37625 L5.262,22.81325 C4.72,22.50025 4.72,21.72025 5.262,21.39825 L36.745,3.21425 C36.993,3.06725 37.306,3.06725 37.563,3.21425 L43.909,6.87825 L43.909,6.86925 Z M3.912,25.13625 L10.258,28.80125 C10.506,28.94825 10.663,29.21425 10.663,29.50825 L10.663,49.24525 C10.663,49.53825 10.819,49.80525 11.067,49.95225 L24.384,57.63925 C24.925,57.95125 25.605,57.55625 25.605,56.93225 L25.605,39.06925 C25.605,38.44425 26.285,38.04925 26.827,38.36125 L35.405,43.31225 C35.653,43.45925 35.809,43.72525 35.809,44.01925 L35.809,80.38825 C35.809,81.01225 35.129,81.40725 34.587,81.09525 L3.095,62.92025 C2.847,62.77325 2.691,62.50625 2.691,62.21325 L2.691,25.84325 C2.691,25.21925 3.37,24.82425 3.912,25.13625 Z M38.5,80.39725 L38.5,44.02825 C38.5,43.73425 38.656,43.46825 38.904,43.32125 L70.396,25.13625 C70.938,24.82425 71.617,25.21925 71.617,25.84325 L71.617,62.21325 C71.617,62.50625 71.461,62.77325 71.213,62.92025 L39.721,81.10425 C39.179,81.41725 38.5,81.02225 38.5,80.39725 Z M60.211,60.98225 C60.578,61.62525 60.358,62.44225 59.715,62.81925 L43,72.48025 C42.688,72.66425 42.32,72.71925 41.971,72.62725 C41.622,72.53525 41.328,72.31525 41.145,72.00325 C40.961,71.69125 40.915,71.31425 41.016,70.97425 C41.117,70.62525 41.347,70.33125 41.659,70.15725 L58.374,60.50425 C59.017,60.12825 59.834,60.35725 60.211,61.00025 L60.211,60.98225 Z M41.466,64.46325 C41.09,63.82025 41.31,63.00225 41.962,62.62625 L50.843,57.49225 C51.155,57.30825 51.523,57.25325 51.872,57.34525 C52.221,57.43725 52.515,57.65725 52.698,57.96925 C52.882,58.28225 52.928,58.65825 52.827,58.99825 C52.726,59.34725 52.496,59.64125 52.184,59.81525 L43.303,64.94925 C42.991,65.12425 42.623,65.17925 42.283,65.07825 C41.934,64.98625 41.65,64.76625 41.466,64.45325 L41.466,64.46325 Z" id="Shape" fill="#4F4F4F"></path>
        </g>
    </g>
</svg>