<?xml version="1.0" encoding="UTF-8"?>
<svg width="85px" height="90px" viewBox="0 0 85 90" version="1.1" xmlns="http://www.w3.org/2000/svg" xmlns:xlink="http://www.w3.org/1999/xlink">
    <title>Group</title>
    <g id="Page-1" stroke="none" stroke-width="1" fill="none" fill-rule="evenodd">
        <g id="Group" transform="translate(0, 0.3245)">
            <path d="M85,46.582137 C85,70.054237 65.9721,89.082137 42.5,89.082137 C19.0279,89.082137 0,70.054237 0,46.582137 C0,23.110037 19.0279,4.082157 42.5,4.082157 C65.9721,4.082157 85,23.110037 85,46.582137 Z" id="Path" fill="#FFCA4D" fill-rule="nonzero"></path>
            <path d="M60.0069,21.981337 L60.0069,4.307897 C60.0069,1.930487 58.0484,0 55.6366,0 L14.8449,0 C12.4331,0 10.4746,1.930487 10.4746,4.307897 L10.4746,61.748337 C10.4746,64.125737 12.4331,66.056237 14.8449,66.056237 L55.6366,66.056237 C58.0484,66.056237 60.0069,64.125737 60.0069,61.748337 L60.0069,49.745537 C60.0069,48.951337 59.3541,48.307837 58.5483,48.307837 C57.7453,48.307837 57.0925,48.951337 57.0925,49.745537 L57.0925,61.748337 C57.0925,62.539937 56.4397,63.183437 55.6366,63.183437 L14.845,63.183437 C14.042,63.183437 13.3892,62.539937 13.3892,61.748337 L13.3892,4.307897 C13.3892,3.516347 14.042,2.872847 14.845,2.872847 L55.6366,2.872847 C56.4397,2.872847 57.0925,3.516337 57.0925,4.307897 L57.0925,21.981337 C57.0925,22.772837 57.7453,23.416337 58.5483,23.416337 C59.3541,23.416337 60.0069,22.772837 60.0069,21.981337 Z" id="Path" fill="#4F4F4F"></path>
            <path d="M45.0145,57.017937 L76.4648,25.950037 C78.1665,24.267337 78.1665,21.542537 76.4594,19.859837 C75.9049,19.315937 75.3067,18.723637 74.7549,18.179737 C73.9328,17.371937 72.8211,16.917037 71.6602,16.917037 C70.5021,16.917037 69.3876,17.372037 68.5709,18.182437 C61.2777,25.387237 37.1234,49.244737 37.1234,49.244737 C36.8502,49.514037 36.6973,49.880137 36.6973,50.259837 L36.6973,56.002837 C36.6973,56.797037 37.3501,57.440537 38.1558,57.440537 L43.982,57.440537 C44.3699,57.440537 44.7386,57.287137 45.0145,57.017937 Z M67.2948,23.505237 L71.0342,27.247737 L43.3781,54.568137 L39.6114,54.568137 L39.6114,50.855237 L67.2948,23.505237 Z M73.0937,25.214937 L69.3543,21.472437 L70.6326,20.209737 C70.9058,19.940537 71.2773,19.789737 71.6624,19.789737 C72.0476,19.789737 72.419,19.940537 72.6922,20.209737 L74.3994,21.889837 C74.9675,22.452537 74.9703,23.359837 74.4021,23.922637 L73.0937,25.214937 Z" id="Shape" fill="#4F4F4F"></path>
            <path d="M20.6734,25.847137 L49.8071,25.847137 C50.6128,25.847137 51.2657,25.203637 51.2657,24.412137 C51.2657,23.620537 50.6128,22.977037 49.8071,22.977037 L20.6734,22.977037 C19.8677,22.977037 19.2148,23.620537 19.2148,24.412137 C19.2148,25.203637 19.8677,25.847137 20.6734,25.847137 Z" id="Path" fill="#4F4F4F"></path>
            <path d="M20.6734,20.104237 L49.8071,20.104237 C50.6128,20.104237 51.2657,19.460737 51.2657,18.669137 C51.2657,17.874937 50.6128,17.231437 49.8071,17.231437 L20.6734,17.231437 C19.8677,17.231437 19.2148,17.874937 19.2148,18.669137 C19.2148,19.460737 19.8677,20.104237 20.6734,20.104237 Z" id="Path" fill="#4F4F4F"></path>
            <path d="M20.6734,48.824637 L32.3258,48.824637 C33.1315,48.824637 33.7843,48.181237 33.7843,47.386937 C33.7843,46.595437 33.1315,45.951937 32.3258,45.951937 L20.6734,45.951937 C19.8677,45.951937 19.2148,46.595437 19.2148,47.386937 C19.2148,48.181237 19.8677,48.824637 20.6734,48.824637 Z" id="Path" fill="#4F4F4F"></path>
            <path d="M20.6734,31.592737 L49.8071,31.592737 C50.6128,31.592737 51.2657,30.949237 51.2657,30.155037 C51.2657,29.363437 50.6128,28.719937 49.8071,28.719937 L20.6734,28.719937 C19.8677,28.719937 19.2148,29.363437 19.2148,30.155037 C19.2148,30.949237 19.8677,31.592737 20.6734,31.592737 Z" id="Path" fill="#4F4F4F"></path>
            <path d="M20.6734,37.335937 L43.9809,37.335937 C44.7839,37.335937 45.4368,36.692437 45.4368,35.900837 C45.4368,35.106637 44.7839,34.463137 43.9809,34.463137 L20.6734,34.463137 C19.8677,34.463137 19.2148,35.106637 19.2148,35.900837 C19.2148,36.692437 19.8677,37.335937 20.6734,37.335937 Z" id="Path" fill="#4F4F4F"></path>
            <path d="M20.6734,43.078837 L38.1547,43.078837 C38.9578,43.078837 39.6106,42.435337 39.6106,41.643837 C39.6106,40.852237 38.9578,40.208737 38.1547,40.208737 L20.6734,40.208737 C19.8677,40.208737 19.2148,40.852237 19.2148,41.643837 C19.2148,42.435337 19.8677,43.078837 20.6734,43.078837 Z" id="Path" fill="#4F4F4F"></path>
        </g>
    </g>
</svg>