<svg width="832" height="986" viewBox="0 0 832 986" fill="none" xmlns="http://www.w3.org/2000/svg">
<path fill-rule="evenodd" clip-rule="evenodd" d="M138.525 142.103C138.525 177.263 167.028 205.766 202.188 205.766H710.035C777.243 205.766 831.726 260.249 831.726 327.457C831.726 394.665 777.243 449.148 710.035 449.148H332.075C288.968 449.148 254.023 484.094 254.023 527.201C254.023 570.308 288.968 605.253 332.075 605.253H332.192L444.002 608.009C489.59 608.073 526.526 645.049 526.526 690.652V948.61C526.526 953.852 522.277 958.1 517.036 958.1C511.795 958.1 507.546 953.852 507.546 948.61V690.652C507.546 655.492 479.043 626.988 443.882 626.988H443.766L331.956 624.233C278.421 624.169 235.043 580.75 235.043 527.201C235.043 473.611 278.486 430.168 332.075 430.168H710.035C766.761 430.168 812.747 384.183 812.747 327.457C812.747 270.731 766.761 224.746 710.035 224.746H202.188C156.546 224.746 119.545 187.745 119.545 142.103H138.525Z" fill="url(#paint0_linear_2159_6380)"/>
<path d="M717.683 214.491C717.683 226.978 707.561 237.1 695.074 237.1C682.587 237.1 672.465 226.978 672.465 214.491C672.465 202.004 682.587 191.882 695.074 191.882C707.561 191.882 717.683 202.004 717.683 214.491Z" fill="white"/>
<path fill-rule="evenodd" clip-rule="evenodd" d="M695.074 228.11C702.595 228.11 708.693 222.012 708.693 214.491C708.693 206.97 702.595 200.872 695.074 200.872C687.553 200.872 681.455 206.97 681.455 214.491C681.455 222.012 687.553 228.11 695.074 228.11ZM695.074 237.1C707.561 237.1 717.683 226.978 717.683 214.491C717.683 202.004 707.561 191.882 695.074 191.882C682.587 191.882 672.465 202.004 672.465 214.491C672.465 226.978 682.587 237.1 695.074 237.1Z" fill="#01763D"/>
<path d="M718.445 439.155C718.445 452.063 707.98 462.528 695.072 462.528C682.164 462.528 671.699 452.063 671.699 439.155C671.699 426.247 682.164 415.782 695.072 415.782C707.98 415.782 718.445 426.247 718.445 439.155Z" fill="white"/>
<path fill-rule="evenodd" clip-rule="evenodd" d="M695.072 453.537C703.015 453.537 709.454 447.098 709.454 439.155C709.454 431.212 703.015 424.773 695.072 424.773C687.129 424.773 680.69 431.212 680.69 439.155C680.69 447.098 687.129 453.537 695.072 453.537ZM695.072 462.528C707.98 462.528 718.445 452.063 718.445 439.155C718.445 426.247 707.98 415.782 695.072 415.782C682.164 415.782 671.699 426.247 671.699 439.155C671.699 452.063 682.164 462.528 695.072 462.528Z" fill="#01763D"/>
<path d="M266.746 524.537C266.746 537.083 256.576 547.254 244.029 547.254C231.483 547.254 221.312 537.083 221.312 524.537C221.312 511.991 231.483 501.82 244.029 501.82C256.576 501.82 266.746 511.991 266.746 524.537Z" fill="white"/>
<path fill-rule="evenodd" clip-rule="evenodd" d="M244.029 538.264C251.61 538.264 257.756 532.118 257.756 524.537C257.756 516.956 251.61 510.811 244.029 510.811C236.448 510.811 230.303 516.956 230.303 524.537C230.303 532.118 236.448 538.264 244.029 538.264ZM244.029 547.254C256.576 547.254 266.746 537.083 266.746 524.537C266.746 511.991 256.576 501.82 244.029 501.82C231.483 501.82 221.312 511.991 221.312 524.537C221.312 537.083 231.483 547.254 244.029 547.254Z" fill="#01763D"/>
<path d="M535.304 690.652C535.304 699.667 527.996 706.975 518.981 706.975C509.966 706.975 502.658 699.667 502.658 690.652C502.658 681.637 509.966 674.329 518.981 674.329C527.996 674.329 535.304 681.637 535.304 690.652Z" fill="white"/>
<path fill-rule="evenodd" clip-rule="evenodd" d="M518.981 697.984C523.031 697.984 526.314 694.702 526.314 690.652C526.314 686.602 523.031 683.319 518.981 683.319C514.931 683.319 511.649 686.602 511.649 690.652C511.649 694.702 514.931 697.984 518.981 697.984ZM518.981 706.975C527.996 706.975 535.304 699.667 535.304 690.652C535.304 681.637 527.996 674.329 518.981 674.329C509.966 674.329 502.658 681.637 502.658 690.652C502.658 699.667 509.966 706.975 518.981 706.975Z" fill="#01763D"/>
<path d="M85 46.9066C85 70.3787 65.9721 89.4066 42.5 89.4066C19.0279 89.4066 0 70.3787 0 46.9066C0 23.4345 19.0279 4.40662 42.5 4.40662C65.9721 4.40662 85 23.4345 85 46.9066Z" fill="#FFCA4D"/>
<path d="M782.611 137.019C782.611 160.492 763.583 179.519 740.111 179.519C716.639 179.519 697.611 160.492 697.611 137.019C697.611 113.547 716.639 94.5194 740.111 94.5194C763.583 94.5194 782.611 113.547 782.611 137.019Z" fill="#FFCA4D"/>
<path d="M752.344 158.052C751.901 158.052 751.452 157.998 751.023 157.897C737.803 154.7 725.723 147.922 716.104 138.309C706.484 128.69 699.707 116.61 696.516 103.39C696.147 101.902 696.422 100.327 697.266 99.0529C698.125 97.7591 699.472 96.8675 701 96.5994L709.869 95.0374C712.772 94.5413 715.561 96.3714 716.258 99.2272C717.002 102.163 717.994 105.026 719.214 107.794C720.461 110.462 719.409 113.64 716.821 115.041L716.238 115.363C715.36 115.839 714.716 116.663 714.468 117.629C714.22 118.574 714.381 119.586 714.91 120.404C719.851 128.033 726.34 134.535 733.955 139.489C734.78 140.019 735.786 140.18 736.731 139.932C737.716 139.684 738.554 139.033 739.037 138.135L739.352 137.552C740.76 134.951 743.951 133.898 746.625 135.159C749.394 136.379 752.263 137.371 755.193 138.115C758.055 138.812 759.885 141.601 759.382 144.504L757.827 153.372C757.559 154.908 756.667 156.255 755.374 157.106C754.475 157.71 753.423 158.031 752.337 158.031L752.344 158.052ZM751.492 155.98C752.451 156.215 753.456 156.034 754.274 155.491C755.112 154.954 755.689 154.103 755.87 153.124L757.425 144.255C757.74 142.372 756.54 140.562 754.683 140.126C751.64 139.348 748.677 138.309 745.807 137.029C744.078 136.218 742.007 136.888 741.088 138.564L740.773 139.154C740.022 140.528 738.728 141.527 737.213 141.916C735.739 142.305 734.163 142.05 732.883 141.219C725.026 136.104 718.336 129.394 713.248 121.523C712.41 120.243 712.155 118.668 712.544 117.186C712.933 115.671 713.932 114.384 715.306 113.633L715.896 113.318C717.565 112.386 718.235 110.328 717.438 108.599C716.157 105.73 715.118 102.767 714.341 99.7233C713.898 97.8663 712.088 96.6731 710.211 96.9815L701.342 98.5367C700.343 98.7043 699.465 99.2875 698.909 100.132C698.373 100.957 698.198 101.962 698.426 102.914C701.53 115.785 708.133 127.55 717.491 136.915C726.856 146.28 738.621 152.876 751.492 155.98Z" fill="#4F4F4F"/>
<path fill-rule="evenodd" clip-rule="evenodd" d="M753.274 158.722H752.344C751.848 158.722 751.348 158.662 750.87 158.55L750.866 158.549C737.526 155.322 725.337 148.484 715.63 138.784C705.924 129.077 699.085 116.888 695.865 103.549C695.452 101.879 695.76 100.112 696.708 98.6824C697.666 97.2377 699.173 96.2395 700.885 95.9391L709.757 94.3767C713.005 93.8216 716.127 95.8687 716.909 99.0654C717.643 101.961 718.622 104.785 719.825 107.518C721.217 110.505 720.038 114.06 717.143 115.629C717.142 115.63 717.141 115.63 717.141 115.631L716.558 115.952C715.843 116.339 715.319 117.011 715.118 117.796L715.117 117.799C714.916 118.563 715.047 119.381 715.474 120.04C720.363 127.589 726.784 134.024 734.32 138.926C734.987 139.354 735.799 139.483 736.561 139.283L736.568 139.282C737.371 139.079 738.054 138.549 738.447 137.818L738.447 137.816L738.763 137.233C740.338 134.323 743.908 133.142 746.904 134.549C749.635 135.752 752.466 136.73 755.355 137.464C758.558 138.246 760.606 141.368 760.043 144.618L758.488 153.488C758.188 155.205 757.191 156.712 755.745 157.665C754.99 158.171 754.137 158.501 753.245 158.634L753.274 158.722ZM753.029 157.988C752.823 158.014 752.615 158.028 752.406 158.031C752.385 158.031 752.365 158.031 752.344 158.031C752.342 158.031 752.34 158.031 752.337 158.031L752.344 158.052C752.342 158.052 752.34 158.052 752.337 158.052C752.318 158.052 752.298 158.051 752.278 158.051C752.06 158.049 751.84 158.033 751.622 158.005C751.42 157.98 751.22 157.943 751.023 157.897C737.804 154.7 725.724 147.922 716.104 138.309C706.484 128.69 699.707 116.61 696.516 103.39C696.147 101.902 696.422 100.327 697.267 99.0529C698.125 97.7591 699.472 96.8675 701.001 96.5994L709.87 95.0375C712.772 94.5414 715.561 96.3715 716.258 99.2272C717.002 102.163 717.995 105.026 719.215 107.794C720.461 110.463 719.409 113.64 716.821 115.041L716.238 115.363C715.36 115.839 714.716 116.663 714.468 117.629C714.22 118.574 714.381 119.586 714.911 120.404C719.851 128.033 726.341 134.535 733.956 139.489C734.78 140.019 735.786 140.18 736.731 139.932C737.717 139.684 738.555 139.033 739.037 138.135L739.352 137.552C740.76 134.951 743.951 133.898 746.626 135.159C749.394 136.379 752.264 137.371 755.193 138.115C758.055 138.812 759.886 141.601 759.383 144.504L757.828 153.372C757.559 154.908 756.668 156.255 755.374 157.106C754.668 157.581 753.867 157.881 753.029 157.988ZM751.65 155.328L751.652 155.329C752.427 155.519 753.24 155.373 753.904 154.932L753.913 154.926C754.595 154.49 755.063 153.799 755.21 153.006C755.211 153.005 755.211 153.004 755.211 153.003L756.764 144.145C756.764 144.144 756.764 144.143 756.765 144.143C757.02 142.607 756.041 141.133 754.53 140.779L754.518 140.776C751.436 139.988 748.438 138.937 745.535 137.641L745.523 137.636C744.114 136.975 742.427 137.521 741.678 138.883C741.678 138.884 741.677 138.885 741.676 138.886L741.362 139.475C740.521 141.014 739.075 142.13 737.383 142.565C735.725 143.001 733.956 142.714 732.518 141.781C724.583 136.615 717.825 129.837 712.686 121.889C711.745 120.45 711.46 118.681 711.896 117.018C712.331 115.324 713.448 113.885 714.985 113.045L714.991 113.042L715.575 112.73C716.935 111.967 717.479 110.289 716.829 108.88L716.826 108.872C715.531 105.969 714.479 102.97 713.692 99.8892L713.689 99.8787C713.329 98.3673 711.855 97.3927 710.324 97.6424L701.454 99.1979C700.644 99.3338 699.927 99.8074 699.47 100.499C699.035 101.17 698.894 101.986 699.078 102.758C702.153 115.508 708.695 127.163 717.966 136.441C727.244 145.719 738.899 152.254 751.65 155.328ZM717.492 136.915C708.134 127.55 701.53 115.785 698.427 102.914C698.199 101.962 698.373 100.957 698.909 100.132C699.466 99.2876 700.344 98.7043 701.343 98.5367L710.212 96.9815C712.089 96.6731 713.899 97.8664 714.341 99.7233C715.119 102.767 716.158 105.73 717.438 108.599C718.236 110.328 717.566 112.386 715.896 113.318L715.306 113.633C713.932 114.384 712.933 115.671 712.545 117.186C712.156 118.668 712.41 120.243 713.248 121.524C718.336 129.394 725.027 136.104 732.883 141.219C734.164 142.05 735.739 142.305 737.214 141.916C738.729 141.527 740.023 140.528 740.773 139.154L741.089 138.564C742.007 136.888 744.078 136.218 745.808 137.029C748.677 138.309 751.64 139.348 754.684 140.126C756.54 140.562 757.74 142.372 757.425 144.256L755.87 153.124C755.689 154.103 755.113 154.955 754.275 155.491C753.457 156.034 752.451 156.215 751.493 155.98C738.622 152.876 726.857 146.28 717.492 136.915Z" fill="#4F4F4F"/>
<path d="M757.409 122.743C756.866 122.743 756.424 122.301 756.424 121.758C756.531 115.457 754.131 109.37 749.754 104.831C745.376 100.293 739.377 97.6853 733.075 97.5646C732.532 97.5646 732.09 97.1222 732.09 96.5792C732.09 96.0362 732.532 95.5938 733.075 95.5938C739.906 95.7077 746.409 98.5366 751.155 103.444C755.908 108.351 758.509 114.947 758.402 121.778C758.388 122.314 757.952 122.743 757.416 122.743H757.409Z" fill="#4F4F4F"/>
<path fill-rule="evenodd" clip-rule="evenodd" d="M755.754 121.747L755.754 121.747C755.858 115.623 753.526 109.708 749.272 105.297C745.019 100.888 739.191 98.3537 733.068 98.235C732.159 98.2311 731.42 97.4901 731.42 96.5793C731.42 95.666 732.162 94.9235 733.076 94.9235H733.087L733.087 94.9236C740.096 95.0405 746.767 97.9431 751.637 102.977C756.514 108.013 759.182 114.781 759.072 121.789L759.072 121.795L759.072 121.795C759.05 122.691 758.32 123.414 757.417 123.414H757.41C756.497 123.414 755.754 122.671 755.754 121.758V121.747ZM751.155 103.444C746.409 98.5367 739.907 95.7078 733.076 95.5938C732.533 95.5938 732.09 96.0363 732.09 96.5793C732.09 97.1223 732.533 97.5647 733.076 97.5647C739.377 97.6854 745.377 100.293 749.754 104.831C754.132 109.37 756.532 115.457 756.424 121.758C756.424 122.301 756.867 122.744 757.41 122.744H757.417C757.953 122.744 758.389 122.314 758.402 121.778C758.509 114.947 755.908 108.351 751.155 103.444Z" fill="#4F4F4F"/>
<path d="M749.494 122.563C748.951 122.563 748.509 122.12 748.509 121.577C748.569 117.374 746.967 113.325 744.044 110.308C741.121 107.292 737.126 105.555 732.923 105.482C732.38 105.482 731.938 105.039 731.938 104.496C731.938 103.953 732.38 103.511 732.923 103.511C737.656 103.585 742.161 105.535 745.459 108.941C748.75 112.34 750.56 116.911 750.48 121.637C750.446 122.16 750.017 122.563 749.494 122.563Z" fill="#4F4F4F"/>
<path fill-rule="evenodd" clip-rule="evenodd" d="M747.839 121.567H747.839C747.897 117.541 746.362 113.664 743.563 110.775C740.765 107.887 736.94 106.224 732.917 106.152C732.007 106.148 731.268 105.407 731.268 104.496C731.268 103.583 732.01 102.84 732.923 102.84H732.934L732.934 102.841C737.845 102.917 742.519 104.941 745.941 108.474L745.941 108.474C749.356 112.001 751.234 116.744 751.15 121.649L751.15 121.665L751.149 121.68C751.093 122.556 750.372 123.233 749.495 123.233C748.582 123.233 747.839 122.49 747.839 121.577V121.567ZM732.923 105.482C737.127 105.555 741.122 107.292 744.045 110.308C746.967 113.325 748.57 117.374 748.509 121.577C748.509 122.12 748.952 122.563 749.495 122.563C750.018 122.563 750.447 122.16 750.48 121.637C750.561 116.911 748.751 112.34 745.459 108.941C742.161 105.535 737.656 103.585 732.923 103.511C732.38 103.511 731.938 103.953 731.938 104.496C731.938 105.039 732.38 105.482 732.923 105.482Z" fill="#4F4F4F"/>
<path d="M741.57 122.462C741.027 122.462 740.584 122.02 740.584 121.477C740.638 119.372 739.847 117.34 738.392 115.819C736.938 114.304 734.933 113.426 732.835 113.392C732.292 113.392 731.85 112.95 731.85 112.407C731.85 111.864 732.292 111.421 732.835 111.421C735.463 111.468 737.957 112.561 739.787 114.451C741.61 116.342 742.609 118.876 742.569 121.503C742.555 122.04 742.113 122.475 741.577 122.469L741.57 122.462Z" fill="#4F4F4F"/>
<path fill-rule="evenodd" clip-rule="evenodd" d="M741.577 122.469C742.113 122.475 742.556 122.04 742.569 121.503C742.609 118.876 741.611 116.342 739.787 114.451C737.957 112.561 735.463 111.468 732.835 111.421C732.292 111.421 731.85 111.864 731.85 112.407C731.85 112.95 732.292 113.392 732.835 113.392C734.934 113.425 736.938 114.304 738.393 115.819C739.847 117.34 740.639 119.372 740.585 121.477C740.585 122.02 741.027 122.462 741.57 122.462L741.577 122.469ZM741.264 123.104C740.497 122.96 739.915 122.285 739.915 121.477V121.468L739.915 121.459C739.964 119.535 739.241 117.676 737.909 116.282C736.578 114.897 734.746 114.094 732.829 114.062C731.919 114.059 731.18 113.318 731.18 112.407C731.18 111.493 731.922 110.751 732.835 110.751H732.847L732.847 110.751C735.654 110.801 738.317 111.968 740.269 113.985L740.27 113.986C742.216 116.004 743.282 118.709 743.239 121.514L743.239 121.52L743.239 121.52C743.217 122.415 742.481 123.15 741.569 123.139L741.296 123.136L741.264 123.104Z" fill="#4F4F4F"/>
<path d="M754.128 336.425C754.128 359.897 734.838 378.925 711.044 378.925C687.249 378.925 667.959 359.897 667.959 336.425C667.959 312.953 687.249 293.925 711.044 293.925C734.838 293.925 754.128 312.953 754.128 336.425Z" fill="#FFCA4D"/>
<path d="M196.188 523.748C196.188 547.22 177.16 566.248 153.688 566.248C130.215 566.248 111.188 547.22 111.188 523.748C111.188 500.276 130.215 481.248 153.688 481.248C177.16 481.248 196.188 500.276 196.188 523.748Z" fill="#FFCA4D"/>
<path d="M559.059 942.61C559.059 966.082 540.031 985.11 516.559 985.11C493.086 985.11 474.059 966.082 474.059 942.61C474.059 919.138 493.086 900.11 516.559 900.11C540.031 900.11 559.059 919.138 559.059 942.61Z" fill="#FFCA4D"/>
<path d="M480.592 728.205C480.592 751.677 461.564 770.705 438.092 770.705C414.62 770.705 395.592 751.677 395.592 728.205C395.592 704.733 414.62 685.705 438.092 685.705C461.564 685.705 480.592 704.733 480.592 728.205Z" fill="#FFCA4D"/>
<path fill-rule="evenodd" clip-rule="evenodd" d="M60.0069 22.3058V4.63236C60.0069 2.25495 58.0484 0.324463 55.6366 0.324463H14.8449C12.4331 0.324463 10.4746 2.25495 10.4746 4.63236V62.0728C10.4746 64.4502 12.4331 66.3807 14.8449 66.3807H55.6366C58.0484 66.3807 60.0069 64.4502 60.0069 62.0728V50.07C60.0069 49.2758 59.3541 48.6323 58.5483 48.6323C57.7453 48.6323 57.0925 49.2758 57.0925 50.07V62.0728C57.0925 62.8644 56.4397 63.5079 55.6366 63.5079H14.845C14.042 63.5079 13.3892 62.8644 13.3892 62.0728V4.63236C13.3892 3.84081 14.042 3.19731 14.845 3.19731H55.6366C56.4397 3.19731 57.0925 3.8408 57.0925 4.63236V22.3058C57.0925 23.0973 57.7453 23.7408 58.5483 23.7408C59.3541 23.7408 60.0069 23.0973 60.0069 22.3058Z" fill="#4F4F4F"/>
<path fill-rule="evenodd" clip-rule="evenodd" d="M45.0145 57.3424L76.4648 26.2745C78.1665 24.5918 78.1665 21.867 76.4594 20.1843C75.9049 19.6404 75.3067 19.0481 74.7549 18.5042C73.9328 17.6964 72.8211 17.2415 71.6602 17.2415C70.5021 17.2415 69.3876 17.6965 68.5709 18.5069C61.2777 25.7117 37.1234 49.5692 37.1234 49.5692C36.8502 49.8385 36.6973 50.2046 36.6973 50.5843V56.3273C36.6973 57.1215 37.3501 57.765 38.1558 57.765H43.982C44.3699 57.765 44.7386 57.6116 45.0145 57.3424ZM67.2948 23.8297L71.0342 27.5722L43.3781 54.8926H39.6114V51.1797L67.2948 23.8297ZM73.0937 25.5394L69.3543 21.7969L70.6326 20.5342C70.9058 20.265 71.2773 20.1142 71.6624 20.1142C72.0476 20.1142 72.419 20.265 72.6922 20.5342L74.3994 22.2143C74.9675 22.777 74.9703 23.6843 74.4021 24.2471L73.0937 25.5394Z" fill="#4F4F4F"/>
<path fill-rule="evenodd" clip-rule="evenodd" d="M20.6734 26.1716H49.8071C50.6128 26.1716 51.2657 25.5281 51.2657 24.7366C51.2657 23.945 50.6128 23.3015 49.8071 23.3015H20.6734C19.8677 23.3015 19.2148 23.945 19.2148 24.7366C19.2148 25.5281 19.8677 26.1716 20.6734 26.1716Z" fill="#4F4F4F"/>
<path fill-rule="evenodd" clip-rule="evenodd" d="M20.6734 20.4287H49.8071C50.6128 20.4287 51.2657 19.7852 51.2657 18.9936C51.2657 18.1994 50.6128 17.5559 49.8071 17.5559H20.6734C19.8677 17.5559 19.2148 18.1994 19.2148 18.9936C19.2148 19.7852 19.8677 20.4287 20.6734 20.4287Z" fill="#4F4F4F"/>
<path fill-rule="evenodd" clip-rule="evenodd" d="M20.6734 49.1491H32.3258C33.1315 49.1491 33.7843 48.5057 33.7843 47.7114C33.7843 46.9199 33.1315 46.2764 32.3258 46.2764H20.6734C19.8677 46.2764 19.2148 46.9199 19.2148 47.7114C19.2148 48.5057 19.8677 49.1491 20.6734 49.1491Z" fill="#4F4F4F"/>
<path fill-rule="evenodd" clip-rule="evenodd" d="M20.6734 31.9172H49.8071C50.6128 31.9172 51.2657 31.2737 51.2657 30.4795C51.2657 29.6879 50.6128 29.0444 49.8071 29.0444H20.6734C19.8677 29.0444 19.2148 29.6879 19.2148 30.4795C19.2148 31.2737 19.8677 31.9172 20.6734 31.9172Z" fill="#4F4F4F"/>
<path fill-rule="evenodd" clip-rule="evenodd" d="M20.6734 37.6604H43.9809C44.7839 37.6604 45.4368 37.0169 45.4368 36.2253C45.4368 35.4311 44.7839 34.7876 43.9809 34.7876H20.6734C19.8677 34.7876 19.2148 35.4311 19.2148 36.2253C19.2148 37.0169 19.8677 37.6604 20.6734 37.6604Z" fill="#4F4F4F"/>
<path fill-rule="evenodd" clip-rule="evenodd" d="M20.6734 43.4033H38.1547C38.9578 43.4033 39.6106 42.7598 39.6106 41.9683C39.6106 41.1767 38.9578 40.5332 38.1547 40.5332H20.6734C19.8677 40.5332 19.2148 41.1767 19.2148 41.9683C19.2148 42.7598 19.8677 43.4033 20.6734 43.4033Z" fill="#4F4F4F"/>
<path d="M470.337 707.46C469.964 705.86 469.268 704.377 468.332 703.08C466.45 700.476 463.616 698.754 460.779 697.953C454.175 696.4 451.331 698.088 451.331 698.088C451.361 691.34 449.153 685.986 449.153 685.986L449.013 685.618C448.82 685.133 448.645 684.639 448.437 684.155L447.821 682.711C446.964 680.801 446 678.936 444.827 677.188C443.652 675.449 442.289 673.799 440.583 672.475C439.727 671.823 438.787 671.259 437.758 670.853C436.73 670.461 435.618 670.212 434.488 670.224C433.925 670.225 433.358 670.283 432.798 670.41C432.516 670.47 432.24 670.552 431.961 670.653C431.682 670.751 431.378 670.905 431.127 671.062C430.872 671.215 430.643 671.392 430.413 671.57C430.205 671.765 429.971 671.94 429.783 672.156C429.587 672.365 429.387 672.567 429.22 672.8C429.048 673.027 428.865 673.25 428.73 673.5C428.412 673.977 428.19 674.495 427.96 675.014C427.793 675.547 427.588 676.079 427.51 676.631C427.462 676.903 427.394 677.178 427.365 677.449L427.304 678.271C427.238 678.822 427.305 679.356 427.315 679.9C427.455 682.058 428.059 684.105 428.747 686.045C429.063 686.922 429.303 687.809 429.448 688.698C429.577 689.587 429.599 690.475 429.508 691.346C429.338 693.09 428.646 694.747 427.667 696.277C426.692 697.813 425.446 699.225 424.131 700.608C422.813 701.991 421.411 703.335 420.039 704.762C419.355 705.475 418.672 706.199 418.02 706.967C417.69 707.349 417.368 707.739 417.055 708.139C416.897 708.344 416.745 708.534 416.584 708.752C416.417 708.985 416.254 709.219 416.113 709.45C415.525 710.377 415.087 711.309 414.68 712.243C414.638 712.339 414.601 712.438 414.56 712.534C414.264 712.479 413.964 712.433 413.662 712.395C411.223 712.092 408.575 712.325 406.15 713.427C404.954 713.99 403.823 714.728 402.85 715.635C401.896 716.549 401.04 717.565 400.383 718.667C399.026 720.855 398.225 723.227 397.708 725.547C397.428 726.711 397.29 727.866 397.128 729.016C397.08 729.588 397.034 730.155 396.989 730.723C396.968 731.005 396.948 731.29 396.927 731.572C396.922 731.853 396.912 732.133 396.906 732.41C396.895 732.967 396.883 733.524 396.875 734.077C396.875 734.633 396.905 735.19 396.924 735.741C396.933 736.016 396.946 736.291 396.955 736.566C396.965 736.841 397.005 737.118 397.029 737.392C397.086 737.939 397.142 738.482 397.194 739.026C397.507 741.191 398.006 743.306 398.763 745.289C399.512 747.278 400.574 749.119 401.864 750.684C403.151 752.252 404.683 753.522 406.279 754.438C407.877 755.361 409.527 755.939 411.087 756.271C414.225 756.93 416.982 756.71 419.146 756.26C419.73 756.143 420.27 756.006 420.774 755.854C421.614 756.542 422.502 757.168 423.43 757.718C423.43 757.718 446.126 767.029 462.409 749.786C463.256 749.266 464.051 748.635 464.751 747.886C466.038 746.498 466.896 744.719 467.279 742.955C467.388 742.512 467.426 742.075 467.498 741.631C467.524 741.196 467.573 740.758 467.566 740.333C467.581 739.473 467.499 738.644 467.38 737.83C467.247 737.025 467.077 736.239 466.852 735.485C466.761 735.186 466.665 734.892 466.562 734.598C466.791 734.405 467.021 734.2 467.246 733.969C468.025 733.202 468.722 732.292 469.228 731.258C469.738 730.23 470.047 729.091 470.146 727.974C470.249 726.852 470.155 725.756 469.945 724.736C469.735 723.712 469.4 722.76 469.01 721.871C468.616 720.982 468.162 720.144 467.659 719.365C467.409 718.973 467.145 718.594 466.871 718.224C466.858 718.209 466.845 718.191 466.836 718.177C467.273 717.701 467.692 717.207 468.063 716.675C468.524 716.04 468.931 715.359 469.282 714.653C469.637 713.946 469.931 713.21 470.158 712.442C470.381 711.675 470.57 710.875 470.589 709.969C470.629 709.095 470.506 708.269 470.337 707.46ZM417.504 754.746C414.92 754.574 412.475 753.957 410.392 752.912C409.355 752.38 408.409 751.755 407.564 751.048C407.356 750.867 407.162 750.674 406.962 750.488C406.865 750.393 406.758 750.307 406.668 750.208L406.396 749.906C406.221 749.703 406.028 749.517 405.863 749.306C405.702 749.094 405.541 748.878 405.381 748.67C405.209 748.467 405.077 748.233 404.934 748.012C404.795 747.787 404.646 747.57 404.514 747.344C404.394 747.109 404.269 746.875 404.149 746.644C404.025 746.414 403.901 746.187 403.806 745.939C403.609 745.45 403.372 744.992 403.22 744.488C403.053 743.993 402.865 743.515 402.749 743C402.461 742.006 402.27 740.984 402.096 739.975C402.027 739.464 401.955 738.96 401.887 738.456C401.845 737.946 401.804 737.44 401.763 736.937C401.707 736.44 401.707 735.93 401.69 735.433C401.679 734.932 401.643 734.44 401.649 733.945C401.654 733.45 401.66 732.955 401.662 732.468C401.664 732.222 401.665 731.98 401.666 731.739C401.679 731.5 401.693 731.261 401.706 731.026C401.729 730.552 401.752 730.082 401.776 729.616C401.811 729.156 401.867 728.703 401.907 728.254C401.929 728.03 401.951 727.806 401.97 727.582C401.992 727.361 402.034 727.146 402.069 726.929C402.134 726.497 402.199 726.069 402.265 725.646C402.596 723.986 403.034 722.452 403.621 721.091C404.785 718.365 406.669 716.494 408.79 715.468C410.547 714.609 412.353 714.275 413.93 714.158C413.823 714.459 413.72 714.759 413.616 715.06C412.379 718.848 411.641 722.699 411.278 726.574C410.922 730.444 410.96 734.344 411.542 738.192C412.115 742.029 413.276 745.836 415.233 749.281C416.229 750.987 417.398 752.612 418.79 754.033C419.035 754.283 419.287 754.529 419.543 754.771C418.859 754.798 418.175 754.789 417.504 754.746ZM466.832 710.123C466.83 710.446 466.782 710.845 466.709 711.227C466.64 711.613 466.529 712.003 466.413 712.385C466.167 713.151 465.838 713.886 465.443 714.577C465.048 715.264 464.584 715.904 464.081 716.501C463.579 717.098 463.012 717.624 462.432 718.125C462.131 718.362 461.834 718.6 461.528 718.819C461.209 719.024 460.911 719.257 460.586 719.436C459.309 720.214 457.966 720.805 456.635 721.269C453.957 722.157 451.372 722.576 449.093 722.775C446.805 722.968 444.819 722.969 443.199 722.942C441.576 722.891 440.316 722.824 439.47 722.75C438.617 722.688 438.173 722.655 438.173 722.655C441.181 723.364 444.216 723.894 447.26 724.105C448.783 724.195 450.307 724.258 451.829 724.172C452.591 724.158 453.346 724.067 454.107 724.003C454.487 723.961 454.861 723.897 455.24 723.844L455.803 723.759L456.365 723.648C456.737 723.565 457.115 723.508 457.486 723.406C457.857 723.308 458.227 723.209 458.594 723.111C458.959 722.99 459.325 722.873 459.686 722.753C460.051 722.636 460.401 722.474 460.761 722.339C461.571 722.002 462.359 721.601 463.117 721.154C463.308 721.402 463.492 721.657 463.664 721.914C464.048 722.478 464.392 723.061 464.677 723.641C465.257 724.805 465.623 725.984 465.701 727.066C465.779 728.152 465.547 729.12 465.068 730.026C464.805 730.471 464.51 730.907 464.132 731.306C463.958 731.513 463.72 731.718 463.52 731.924C463.295 732.117 463.084 732.323 462.851 732.505C461.01 734.004 458.854 735.071 456.763 735.833C454.665 736.592 452.602 737.072 450.704 737.33C446.894 737.866 443.757 737.563 441.681 737.074C440.64 736.829 439.859 736.546 439.334 736.34C438.816 736.114 438.548 735.996 438.548 735.996C440.169 737.266 442.123 738.116 444.118 738.681C446.121 739.254 448.189 739.522 450.243 739.591C452.296 739.653 454.337 739.494 456.333 739.131C457.329 738.942 458.313 738.709 459.284 738.419C460.25 738.122 461.201 737.772 462.126 737.36C462.229 737.312 462.332 737.261 462.435 737.213C462.557 737.628 462.667 738.044 462.753 738.454C462.981 739.538 463.052 740.594 462.971 741.571C462.812 743.53 461.977 745.123 460.576 746.31C460.421 746.473 460.218 746.595 460.035 746.734C459.843 746.863 459.673 747.02 459.464 747.13C459.26 747.248 459.056 747.366 458.855 747.48C458.752 747.535 458.659 747.601 458.548 747.653L458.224 747.801C457.793 747.997 457.375 748.207 456.92 748.351C456.473 748.506 456.045 748.686 455.586 748.792C453.806 749.339 452.025 749.582 450.404 749.807C447.137 750.195 444.436 750.176 442.584 750.215C440.73 750.193 439.703 750.2 439.703 750.2C443.121 751.122 446.541 751.798 449.968 752.044L450.609 752.094L451.25 752.109C451.681 752.117 452.111 752.124 452.537 752.132C452.964 752.152 453.394 752.106 453.822 752.094C454.249 752.068 454.678 752.064 455.107 752.014C455.643 751.958 456.181 751.883 456.713 751.794C456.673 751.855 456.636 751.916 456.595 751.977C455.913 752.962 454.934 753.809 453.786 754.479C452.639 755.157 451.331 755.668 449.957 756.048C448.58 756.428 447.142 756.679 445.684 756.852C442.752 757.16 439.756 757.148 436.778 756.95C435.304 756.855 433.906 756.696 432.519 756.414C431.14 756.131 429.806 755.748 428.531 755.252C427.391 754.805 426.307 754.262 425.288 753.628C425.405 753.526 425.469 753.466 425.469 753.466C425.388 753.512 425.308 753.55 425.231 753.591C423.996 752.819 422.861 751.924 421.853 750.898C419.991 749.021 418.567 746.736 417.531 744.282C416.491 741.825 415.835 739.204 415.453 736.561C415.074 733.914 414.969 731.236 415.067 728.597C415.165 725.957 415.465 723.35 415.945 720.826C416.384 718.532 416.965 716.287 417.738 714.208L418.019 713.481C418.459 712.399 418.944 711.397 419.542 710.577C420.238 709.61 421.01 708.682 421.814 707.77C423.427 705.946 425.173 704.206 426.828 702.341C428.471 700.476 430.059 698.467 431.136 696.096C431.671 694.917 432.057 693.652 432.232 692.359C432.412 691.07 432.376 689.766 432.17 688.534C431.964 687.299 431.607 686.13 431.16 685.031C430.804 684.055 430.408 683.105 430.18 682.139C429.668 680.222 429.484 678.294 429.848 676.578C430.052 675.732 430.377 674.94 430.837 674.258C430.961 674.094 431.063 673.916 431.208 673.769C431.34 673.615 431.472 673.461 431.621 673.329C431.899 673.055 432.236 672.795 432.512 672.655C432.632 672.591 432.825 672.516 433.004 672.458C433.186 672.395 433.378 672.348 433.569 672.308C433.957 672.227 434.356 672.187 434.755 672.182C435.553 672.184 436.351 672.323 437.115 672.585C437.878 672.847 438.602 673.227 439.279 673.676C439.956 674.126 440.592 674.64 441.176 675.205C442.35 676.328 443.349 677.592 444.22 678.887C444.22 678.887 451.233 688.668 445.351 705.709C445.351 705.709 442.794 706.359 439.094 705.509C439.094 705.509 445.167 712.06 455.39 705.747C453.701 705.342 452.217 705.042 450.865 704.848C451.039 704.606 451.217 704.372 451.413 704.155C452.009 703.488 452.69 702.959 453.431 702.575C454.919 701.813 456.67 701.668 458.528 702.031C458.762 702.072 458.996 702.116 459.229 702.156C459.453 702.217 459.677 702.277 459.901 702.338C460.359 702.435 460.767 702.625 461.198 702.77C462.016 703.127 462.807 703.524 463.471 704.051C464.153 704.562 464.762 705.148 465.247 705.817C465.739 706.475 466.137 707.195 466.415 707.941C466.688 708.68 466.834 709.452 466.832 710.123Z" fill="#4F4F4F"/>
<path d="M606.795 610.63C597.46 604.92 587.425 604.19 577.855 603.524C568.482 602.851 559.613 602.207 551.161 597.366L551.794 595.004C552.418 592.674 551.036 590.28 548.706 589.656C546.376 589.032 543.983 590.413 543.358 592.744L521.509 674.286C521.409 674.658 521.461 675.056 521.654 675.39C521.847 675.725 522.166 675.968 522.538 676.068L528.162 677.575C528.534 677.675 528.932 677.623 529.267 677.43C529.601 677.237 529.845 676.918 529.944 676.546L538.33 645.251C541.29 646.858 544.428 648.109 547.683 648.977C553.56 650.368 559.556 651.191 565.588 651.439C575.303 652.129 584.486 652.781 593.222 658.136C593.614 658.373 594.093 658.414 594.52 658.242C594.946 658.07 595.265 657.711 595.383 657.268L607.438 612.28C607.622 611.647 607.358 610.974 606.795 610.63ZM527.509 674.387L524.697 673.633L546.17 593.498C546.378 592.721 547.176 592.26 547.952 592.469C548.729 592.677 549.19 593.474 548.982 594.251L527.509 674.387ZM593.073 654.645C584.225 649.818 574.866 649.149 565.8 648.512C556.427 647.839 547.555 647.21 539.102 642.368L550.377 600.29C559.225 605.117 568.584 605.786 577.65 606.422C587.023 607.095 595.895 607.724 604.348 612.566L593.073 654.645Z" fill="#01763D"/>
<path fill-rule="evenodd" clip-rule="evenodd" d="M547.683 648.977C544.736 648.191 541.885 647.091 539.175 645.697C538.892 645.552 538.61 645.403 538.33 645.251L529.945 676.546C529.845 676.918 529.601 677.237 529.267 677.43C528.933 677.623 528.535 677.675 528.162 677.575L522.539 676.068C522.166 675.968 521.847 675.725 521.654 675.39C521.461 675.056 521.41 674.658 521.51 674.286L543.359 592.744C543.983 590.413 546.376 589.032 548.706 589.656C551.037 590.28 552.418 592.674 551.794 595.004L551.161 597.366C559.614 602.207 568.482 602.851 577.855 603.524C587.425 604.19 597.461 604.92 606.795 610.63C607.359 610.974 607.623 611.647 607.438 612.28L595.384 657.268C595.265 657.711 594.947 658.07 594.52 658.242C594.093 658.414 593.615 658.373 593.223 658.136C584.486 652.781 575.304 652.129 565.588 651.439C559.556 651.191 553.561 650.368 547.683 648.977ZM565.536 652.369C559.449 652.118 553.4 651.287 547.469 649.884L547.456 649.881L547.443 649.877C544.496 649.091 541.644 647.998 538.929 646.617L530.845 676.787C530.681 677.397 530.282 677.92 529.733 678.237C529.184 678.554 528.531 678.638 527.921 678.475L522.298 676.968C521.688 676.805 521.165 676.406 520.847 675.856C520.53 675.307 520.446 674.654 520.61 674.044L542.459 592.502C543.216 589.675 546.12 587.999 548.948 588.756C551.775 589.514 553.451 592.418 552.694 595.245L552.248 596.907C560.302 601.31 568.757 601.937 577.921 602.595C587.467 603.259 597.726 603.99 607.281 609.836C608.197 610.394 608.633 611.493 608.336 612.529L596.284 657.509C596.089 658.236 595.565 658.825 594.868 659.106C594.166 659.389 593.38 659.319 592.741 658.933L592.736 658.93C584.225 653.714 575.275 653.061 565.536 652.369ZM525.839 672.975L547.07 593.739C547.145 593.459 547.432 593.293 547.712 593.368C547.992 593.443 548.157 593.73 548.082 594.01L526.851 673.246L525.839 672.975ZM593.073 654.645L604.348 612.566C595.911 607.733 587.056 607.097 577.703 606.426L577.65 606.422C568.872 605.806 559.82 605.159 551.222 600.737C550.94 600.592 550.659 600.443 550.378 600.29L539.103 642.368C547.539 647.201 556.394 647.837 565.748 648.509L565.8 648.512C574.579 649.128 583.631 649.775 592.229 654.197C592.511 654.342 592.792 654.491 593.073 654.645ZM592.475 653.277L603.261 613.025C595.208 608.623 586.749 608.009 577.584 607.351C568.89 606.741 559.716 606.097 550.976 601.657L540.19 641.91C548.243 646.312 556.702 646.925 565.867 647.583C574.562 648.193 583.735 648.838 592.475 653.277ZM527.51 674.387L548.982 594.251C549.19 593.474 548.73 592.677 547.953 592.469C547.176 592.26 546.378 592.721 546.17 593.498L524.698 673.633L527.51 674.387Z" fill="#01763D"/>
<path d="M151.46 134.076C151.46 147.565 140.525 158.499 127.036 158.499C113.548 158.499 102.613 147.565 102.613 134.076C102.613 120.588 113.548 109.653 127.036 109.653C140.525 109.653 151.46 120.588 151.46 134.076Z" fill="white"/>
<path fill-rule="evenodd" clip-rule="evenodd" d="M127.036 149.509C135.56 149.509 142.469 142.6 142.469 134.076C142.469 125.553 135.56 118.644 127.036 118.644C118.513 118.644 111.604 125.553 111.604 134.076C111.604 142.6 118.513 149.509 127.036 149.509ZM127.036 158.499C140.525 158.499 151.46 147.565 151.46 134.076C151.46 120.588 140.525 109.653 127.036 109.653C113.548 109.653 102.613 120.588 102.613 134.076C102.613 147.565 113.548 158.499 127.036 158.499Z" fill="#01763D"/>
<path d="M722.647 296.098L707.704 287.474L697.446 281.551C697.198 281.404 696.886 281.404 696.628 281.551L660.287 302.536C660.039 302.683 659.883 302.95 659.883 303.243V345.215C659.883 345.509 660.039 345.775 660.287 345.922L696.628 366.908C696.876 367.055 697.189 367.055 697.446 366.908L733.787 345.922C734.035 345.775 734.191 345.509 734.191 345.215V303.234C734.191 302.94 734.035 302.674 733.787 302.527L722.647 296.089V296.098ZM728.938 304.245L697.446 322.429C697.198 322.576 696.886 322.576 696.628 322.429L688.05 317.479C687.509 317.167 687.509 316.386 688.05 316.065L719.543 297.88C719.791 297.733 720.103 297.733 720.36 297.88L728.938 302.83C729.48 303.142 729.48 303.923 728.938 304.245ZM674.458 312.731L682.393 317.314C682.641 317.46 682.797 317.727 682.797 318.021V333.707C682.797 334.332 682.118 334.727 681.576 334.414L673.641 329.831C673.393 329.685 673.237 329.418 673.237 329.124V313.438C673.237 312.813 673.916 312.418 674.458 312.731ZM716.044 296.796L684.551 314.981C684.303 315.128 683.991 315.128 683.734 314.981L675.808 310.407C675.266 310.095 675.266 309.314 675.808 308.993L707.3 290.808C707.548 290.661 707.861 290.661 708.118 290.808L716.044 295.391C716.585 295.703 716.585 296.484 716.044 296.805V296.796ZM703.792 288.31C704.334 288.622 704.334 289.403 703.792 289.724L671.896 308.148L671.317 307.817L665.145 304.254C664.603 303.941 664.603 303.161 665.145 302.839L696.628 284.655C696.876 284.508 697.189 284.508 697.446 284.655L703.792 288.319V288.31ZM663.795 306.577L670.141 310.242C670.389 310.389 670.546 310.655 670.546 310.949V330.686C670.546 330.979 670.702 331.246 670.95 331.393L684.267 339.08C684.808 339.392 685.488 338.997 685.488 338.373V320.51C685.488 319.885 686.168 319.49 686.71 319.802L695.288 324.753C695.536 324.9 695.692 325.166 695.692 325.46V361.829C695.692 362.453 695.012 362.848 694.47 362.536L662.978 344.361C662.73 344.214 662.574 343.947 662.574 343.654V307.284C662.574 306.66 663.253 306.265 663.795 306.577ZM698.383 361.838V325.469C698.383 325.175 698.539 324.909 698.787 324.762L730.279 306.577C730.821 306.265 731.5 306.66 731.5 307.284V343.654C731.5 343.947 731.344 344.214 731.096 344.361L699.604 362.545C699.062 362.858 698.383 362.463 698.383 361.838ZM720.094 342.423C720.461 343.066 720.241 343.883 719.598 344.26L702.883 353.921C702.571 354.105 702.203 354.16 701.854 354.068C701.505 353.976 701.211 353.756 701.028 353.444C700.844 353.132 700.798 352.755 700.899 352.415C701 352.066 701.23 351.772 701.542 351.598L718.257 341.945C718.9 341.569 719.717 341.798 720.094 342.441V342.423ZM701.349 345.904C700.973 345.261 701.193 344.443 701.845 344.067L710.726 338.933C711.038 338.749 711.406 338.694 711.755 338.786C712.104 338.878 712.398 339.098 712.581 339.41C712.765 339.723 712.811 340.099 712.71 340.439C712.609 340.788 712.379 341.082 712.067 341.256L703.186 346.39C702.874 346.565 702.506 346.62 702.166 346.519C701.817 346.427 701.533 346.207 701.349 345.894V345.904Z" fill="#4F4F4F"/>
<path d="M98.8135 513.378L104.986 518.014L103.317 520.522C101.328 523.507 101.98 527.678 104.769 529.806L105.009 529.99C106.072 530.797 107.317 531.225 108.609 531.225C108.952 531.225 109.306 531.201 109.649 531.139C109.672 531.139 109.695 531.127 109.718 531.115C109.558 531.935 109.524 532.779 109.661 533.623C109.935 535.372 110.827 536.913 112.187 537.953L112.427 538.136C113.524 538.968 114.781 539.372 116.027 539.372C116.736 539.372 117.433 539.237 118.096 538.993C118.096 541.084 118.988 543.152 120.691 544.448L120.931 544.632C122.028 545.463 123.285 545.867 124.531 545.867C125.663 545.867 126.783 545.525 127.766 544.889C128.006 546.601 128.875 548.203 130.292 549.292L130.521 549.476C131.584 550.283 132.841 550.723 134.121 550.723C134.464 550.723 134.818 550.699 135.161 550.638C136.796 550.344 138.236 549.39 139.196 547.934L141.094 545.084L145.46 548.362C146.546 549.17 147.803 549.598 149.095 549.598C149.46 549.598 149.838 549.561 150.215 549.488C151.884 549.17 153.347 548.179 154.318 546.687C155.198 545.329 155.564 543.714 155.404 542.1C156.319 542.626 157.324 542.895 158.353 542.895C158.719 542.895 159.096 542.858 159.473 542.785C161.142 542.467 162.605 541.476 163.577 539.983C164.525 538.54 164.845 536.827 164.651 535.201C165.394 535.506 166.16 535.678 166.937 535.678C168.949 535.678 170.926 534.662 172.161 532.766C173.064 531.384 173.395 529.769 173.247 528.216C174.275 528.889 175.407 529.231 176.55 529.231C178.562 529.231 180.539 528.216 181.773 526.32C183.488 523.69 183.214 520.204 181.305 517.904L186.608 513.403C188.472 511.812 188.872 508.938 187.5 506.846L177.156 491.042C175.727 488.865 172.915 488.327 170.869 489.856C167.646 492.265 163.565 492.73 159.953 491.115L154.57 488.706C150.649 486.944 146.329 487.091 142.557 488.95C138.762 487.067 134.396 486.969 130.521 488.706L125.137 491.115C121.514 492.742 117.433 492.278 114.221 489.856C113.238 489.109 112.038 488.828 110.849 489.048C109.661 489.268 108.621 489.978 107.935 491.03L97.6819 506.65C96.9846 507.702 96.7217 508.987 96.9275 510.259C97.1561 511.519 97.819 512.632 98.8135 513.366V513.378ZM106.334 527.984L106.106 527.812C104.334 526.467 103.923 523.825 105.191 521.941L107.786 518.051C108.552 516.901 109.764 516.289 110.998 516.289C111.787 516.289 112.587 516.546 113.284 517.072L113.524 517.256C115.296 518.601 115.707 521.244 114.438 523.127L111.844 527.017C110.575 528.901 108.106 529.341 106.346 527.984H106.334ZM113.73 536.13L113.501 535.959C112.644 535.298 112.084 534.332 111.912 533.231C111.741 532.13 111.981 531.005 112.587 530.087L114.987 526.491L117.376 522.895C117.982 521.977 118.896 521.378 119.925 521.195C120.142 521.158 120.359 521.133 120.576 521.133C121.388 521.133 122.177 521.403 122.851 521.916L123.091 522.1C123.948 522.76 124.508 523.727 124.68 524.828C124.851 525.941 124.611 527.054 124.006 527.971L119.205 535.164C118.588 536.081 117.685 536.681 116.656 536.864C115.616 537.048 114.576 536.791 113.718 536.142L113.73 536.13ZM125.16 543.347C124.12 543.531 123.08 543.274 122.222 542.626L121.994 542.454C120.222 541.109 119.811 538.467 121.079 536.583L125.88 529.39C126.497 528.473 127.4 527.861 128.429 527.69C128.646 527.653 128.863 527.629 129.08 527.629C129.892 527.629 130.681 527.898 131.355 528.412L131.595 528.595C133.367 529.941 133.778 532.583 132.51 534.467L131.412 536.118L128.818 540.008L127.72 541.659C127.103 542.577 126.189 543.176 125.149 543.359L125.16 543.347ZM137.322 546.491C136.716 547.408 135.801 548.008 134.773 548.191C133.744 548.375 132.692 548.118 131.835 547.47L131.607 547.286C129.846 545.94 129.423 543.311 130.692 541.415L132.978 537.99L133.287 537.525C133.893 536.607 134.807 536.008 135.836 535.824C136.876 535.641 137.916 535.898 138.773 536.546L139.013 536.73C139.871 537.39 140.431 538.356 140.602 539.457C140.774 540.558 140.533 541.659 139.939 542.577C139.916 542.601 139.893 542.613 139.882 542.638C139.871 542.662 139.859 542.699 139.848 542.723L137.333 546.479L137.322 546.491ZM153.69 490.92L159.073 493.33C163.417 495.274 168.32 494.712 172.195 491.825C173.201 491.067 174.595 491.336 175.304 492.412L185.648 508.216C186.323 509.244 186.128 510.675 185.214 511.458L179.545 516.289L158.365 500.363C156.387 498.895 154.055 498.161 151.735 498.161C149.415 498.161 147.049 498.907 145.06 500.4L135.218 507.764C134.327 508.436 133.241 508.693 132.167 508.485C131.092 508.29 130.155 507.641 129.538 506.687C128.246 504.718 128.703 501.99 130.544 500.608L141.562 492.314C145.14 489.635 149.689 489.109 153.712 490.92H153.69ZM99.5679 508.045L109.798 492.412C110.141 491.886 110.655 491.544 111.238 491.434C111.821 491.323 112.415 491.458 112.907 491.825C116.77 494.724 121.674 495.287 126.029 493.33L131.412 490.92C134.155 489.684 137.207 489.562 140.008 490.479L129.218 498.602C126.337 500.755 125.64 505.011 127.652 508.094C128.623 509.586 130.086 510.577 131.755 510.895C133.435 511.213 135.127 510.809 136.51 509.77L146.351 502.406C149.54 500.021 153.838 500.008 157.039 502.369L178.904 518.809C180.745 520.192 181.202 522.919 179.91 524.889C179.282 525.843 178.344 526.479 177.281 526.687C176.207 526.883 175.121 526.638 174.23 525.965L159.77 515.127C159.256 514.736 158.547 514.871 158.182 515.433C157.816 515.984 157.942 516.754 158.467 517.134L160.022 518.296L169.303 525.256C171.143 526.638 171.589 529.366 170.309 531.335C169.017 533.305 166.468 533.794 164.628 532.412L162.045 530.467L153.792 524.289C153.278 523.898 152.558 524.033 152.204 524.595C151.838 525.146 151.964 525.916 152.489 526.295L160.742 532.473C162.582 533.855 163.028 536.583 161.748 538.552C161.119 539.506 160.193 540.142 159.119 540.35C158.044 540.558 156.97 540.301 156.067 539.629L147.814 533.451C147.3 533.06 146.591 533.194 146.226 533.757C145.86 534.308 145.986 535.078 146.511 535.457L149.963 538.038L151.495 539.176C152.387 539.849 152.981 540.852 153.175 541.989C153.358 543.139 153.13 544.301 152.501 545.255C151.872 546.21 150.946 546.846 149.872 547.054C148.797 547.249 147.712 547.005 146.82 546.332L142.385 543.005C142.934 541.782 143.117 540.424 142.911 539.066C142.637 537.317 141.745 535.775 140.396 534.748L140.156 534.564C138.808 533.537 137.15 533.121 135.516 533.415C135.493 533.415 135.47 533.427 135.447 533.439C135.961 530.919 135.07 528.191 132.99 526.601L132.75 526.418C131.401 525.39 129.743 524.974 128.109 525.268C127.755 525.329 127.412 525.439 127.08 525.562C127.08 525.182 127.069 524.803 127.012 524.424C126.737 522.675 125.846 521.133 124.497 520.106L124.257 519.922C122.908 518.895 121.251 518.479 119.616 518.773C118.816 518.919 118.085 519.213 117.41 519.653C117.159 517.941 116.302 516.338 114.884 515.262L114.644 515.078C112.05 513.097 108.518 513.586 106.426 516.057L100.174 511.372C99.6822 511.005 99.3621 510.455 99.2592 509.831C99.1564 509.219 99.2935 508.583 99.625 508.057L99.5679 508.045Z" fill="#4F4F4F"/>
<path d="M98.8135 513.378L104.986 518.014L103.317 520.522C101.328 523.507 101.98 527.678 104.769 529.806L105.009 529.99C106.072 530.797 107.317 531.225 108.609 531.225C108.952 531.225 109.306 531.201 109.649 531.139C109.672 531.139 109.695 531.127 109.718 531.115C109.558 531.935 109.524 532.779 109.661 533.623C109.935 535.372 110.827 536.913 112.187 537.953L112.427 538.136C113.524 538.968 114.781 539.372 116.027 539.372C116.736 539.372 117.433 539.237 118.096 538.993C118.096 541.084 118.988 543.152 120.691 544.448L120.931 544.632C122.028 545.463 123.285 545.867 124.531 545.867C125.663 545.867 126.783 545.525 127.766 544.889C128.006 546.601 128.875 548.203 130.292 549.292L130.521 549.476C131.584 550.283 132.841 550.723 134.121 550.723C134.464 550.723 134.818 550.699 135.161 550.638C136.796 550.344 138.236 549.39 139.196 547.934L141.094 545.084L145.46 548.362C146.546 549.17 147.803 549.598 149.095 549.598C149.46 549.598 149.838 549.561 150.215 549.488C151.884 549.17 153.347 548.179 154.318 546.687C155.198 545.329 155.564 543.714 155.404 542.1C156.319 542.626 157.324 542.895 158.353 542.895C158.719 542.895 159.096 542.858 159.473 542.785C161.142 542.467 162.605 541.476 163.577 539.983C164.525 538.54 164.845 536.827 164.651 535.201C165.394 535.506 166.16 535.678 166.937 535.678C168.949 535.678 170.926 534.662 172.161 532.766C173.064 531.384 173.395 529.769 173.247 528.216C174.275 528.889 175.407 529.231 176.55 529.231C178.562 529.231 180.539 528.216 181.773 526.32C183.488 523.69 183.214 520.204 181.305 517.904L186.608 513.403C188.472 511.812 188.872 508.938 187.5 506.846L177.156 491.042C175.727 488.865 172.915 488.327 170.869 489.856C167.646 492.265 163.565 492.73 159.953 491.115L154.57 488.706C150.649 486.944 146.329 487.091 142.557 488.95C138.762 487.067 134.396 486.969 130.521 488.706L125.137 491.115C121.514 492.742 117.433 492.278 114.221 489.856C113.238 489.109 112.038 488.828 110.849 489.048C109.661 489.268 108.621 489.978 107.935 491.03L97.6819 506.65C96.9846 507.702 96.7217 508.987 96.9275 510.259C97.1561 511.519 97.819 512.632 98.8135 513.366V513.378ZM106.334 527.984L106.106 527.812C104.334 526.467 103.923 523.825 105.191 521.941L107.786 518.051C108.552 516.901 109.764 516.289 110.998 516.289C111.787 516.289 112.587 516.546 113.284 517.072L113.524 517.256C115.296 518.601 115.707 521.244 114.438 523.127L111.844 527.017C110.575 528.901 108.106 529.341 106.346 527.984H106.334ZM113.73 536.13L113.501 535.959C112.644 535.298 112.084 534.332 111.912 533.231C111.741 532.13 111.981 531.005 112.587 530.087L114.987 526.491L117.376 522.895C117.982 521.977 118.896 521.378 119.925 521.195C120.142 521.158 120.359 521.133 120.576 521.133C121.388 521.133 122.177 521.403 122.851 521.916L123.091 522.1C123.948 522.76 124.508 523.727 124.68 524.828C124.851 525.941 124.611 527.054 124.006 527.971L119.205 535.164C118.588 536.081 117.685 536.681 116.656 536.864C115.616 537.048 114.576 536.791 113.718 536.142L113.73 536.13ZM125.16 543.347C124.12 543.531 123.08 543.274 122.222 542.626L121.994 542.454C120.222 541.109 119.811 538.467 121.079 536.583L125.88 529.39C126.497 528.473 127.4 527.861 128.429 527.69C128.646 527.653 128.863 527.629 129.08 527.629C129.892 527.629 130.681 527.898 131.355 528.412L131.595 528.595C133.367 529.941 133.778 532.583 132.51 534.467L131.412 536.118L128.818 540.008L127.72 541.659C127.103 542.577 126.189 543.176 125.149 543.359L125.16 543.347ZM137.322 546.491C136.716 547.408 135.801 548.008 134.773 548.191C133.744 548.375 132.692 548.118 131.835 547.47L131.607 547.286C129.846 545.94 129.423 543.311 130.692 541.415L132.978 537.99L133.287 537.525C133.893 536.607 134.807 536.008 135.836 535.824C136.876 535.641 137.916 535.898 138.773 536.546L139.013 536.73C139.871 537.39 140.431 538.356 140.602 539.457C140.774 540.558 140.533 541.659 139.939 542.577C139.916 542.601 139.893 542.613 139.882 542.638C139.871 542.662 139.859 542.699 139.848 542.723L137.333 546.479L137.322 546.491ZM153.69 490.92L159.073 493.33C163.417 495.274 168.32 494.712 172.195 491.825C173.201 491.067 174.595 491.336 175.304 492.412L185.648 508.216C186.323 509.244 186.128 510.675 185.214 511.458L179.545 516.289L158.365 500.363C156.387 498.895 154.055 498.161 151.735 498.161C149.415 498.161 147.049 498.907 145.06 500.4L135.218 507.764C134.327 508.436 133.241 508.693 132.167 508.485C131.092 508.29 130.155 507.641 129.538 506.687C128.246 504.718 128.703 501.99 130.544 500.608L141.562 492.314C145.14 489.635 149.689 489.109 153.712 490.92H153.69ZM99.5679 508.045L109.798 492.412C110.141 491.886 110.655 491.544 111.238 491.434C111.821 491.323 112.415 491.458 112.907 491.825C116.77 494.724 121.674 495.287 126.029 493.33L131.412 490.92C134.155 489.684 137.207 489.562 140.008 490.479L129.218 498.602C126.337 500.755 125.64 505.011 127.652 508.094C128.623 509.586 130.086 510.577 131.755 510.895C133.435 511.213 135.127 510.809 136.51 509.77L146.351 502.406C149.54 500.021 153.838 500.008 157.039 502.369L178.904 518.809C180.745 520.192 181.202 522.919 179.91 524.889C179.282 525.843 178.344 526.479 177.281 526.687C176.207 526.883 175.121 526.638 174.23 525.965L159.77 515.127C159.256 514.736 158.547 514.871 158.182 515.433C157.816 515.984 157.942 516.754 158.467 517.134L160.022 518.296L169.303 525.256C171.143 526.638 171.589 529.366 170.309 531.335C169.017 533.305 166.468 533.794 164.628 532.412L162.045 530.467L153.792 524.289C153.278 523.898 152.558 524.033 152.204 524.595C151.838 525.146 151.964 525.916 152.489 526.295L160.742 532.473C162.582 533.855 163.028 536.583 161.748 538.552C161.119 539.506 160.193 540.142 159.119 540.35C158.044 540.558 156.97 540.301 156.067 539.629L147.814 533.451C147.3 533.06 146.591 533.194 146.226 533.757C145.86 534.308 145.986 535.078 146.511 535.457L149.963 538.038L151.495 539.176C152.387 539.849 152.981 540.852 153.175 541.989C153.358 543.139 153.13 544.301 152.501 545.255C151.872 546.21 150.946 546.846 149.872 547.054C148.797 547.249 147.712 547.005 146.82 546.332L142.385 543.005C142.934 541.782 143.117 540.424 142.911 539.066C142.637 537.317 141.745 535.775 140.396 534.748L140.156 534.564C138.808 533.537 137.15 533.121 135.516 533.415C135.493 533.415 135.47 533.427 135.447 533.439C135.961 530.919 135.07 528.191 132.99 526.601L132.75 526.418C131.401 525.39 129.743 524.974 128.109 525.268C127.755 525.329 127.412 525.439 127.08 525.562C127.08 525.182 127.069 524.803 127.012 524.424C126.737 522.675 125.846 521.133 124.497 520.106L124.257 519.922C122.908 518.895 121.251 518.479 119.616 518.773C118.816 518.919 118.085 519.213 117.41 519.653C117.159 517.941 116.302 516.338 114.884 515.262L114.644 515.078C112.05 513.097 108.518 513.586 106.426 516.057L100.174 511.372C99.6822 511.005 99.3621 510.455 99.2592 509.831C99.1564 509.219 99.2935 508.583 99.625 508.057L99.5679 508.045Z" fill="#4F4F4F"/>
<path d="M551.153 960.9L541.29 952.573C541.608 951.976 541.81 951.317 541.872 950.619C541.98 949.278 541.569 947.975 540.709 946.959C540.073 946.207 539.251 945.672 538.328 945.393C539.701 943.563 539.685 940.958 538.15 939.136C537.483 938.345 536.607 937.795 535.622 937.531C536.716 935.732 536.607 933.359 535.18 931.661C534.39 930.723 533.296 930.119 532.087 929.94C532.637 928.32 532.358 926.459 531.18 925.055C530.319 924.032 529.102 923.412 527.76 923.295C526.411 923.179 525.116 923.598 524.093 924.458L523.907 924.613L518.254 921.977C515.293 920.442 512.703 921.652 511.455 923.52C511.036 924.141 510.78 924.815 510.648 925.497L509.415 924.458C507.299 922.675 504.112 922.946 502.329 925.063C501.15 926.459 500.871 928.327 501.421 929.948C500.212 930.126 499.126 930.731 498.328 931.669C497.467 932.693 497.056 933.995 497.165 935.337C497.235 936.128 497.483 936.88 497.878 937.539C496.924 937.795 496.033 938.337 495.35 939.144C493.815 940.966 493.8 943.571 495.172 945.401C494.273 945.672 493.443 946.199 492.792 946.967C491.427 948.587 491.272 950.813 492.21 952.581L482.34 960.9C481.828 961.327 481.766 962.094 482.193 962.606C482.433 962.893 482.774 963.032 483.123 963.032C483.402 963.032 483.674 962.939 483.906 962.745L493.808 954.387L497.777 957.737C498.692 958.504 499.824 958.915 501.003 958.915C501.15 958.915 501.297 958.915 501.437 958.9C502.778 958.783 503.988 958.163 504.849 957.14C505.717 956.116 506.128 954.821 506.012 953.48C505.95 952.774 505.74 952.1 505.415 951.495C506.415 951.255 507.353 950.712 508.066 949.867C509.051 948.704 509.384 947.223 509.16 945.827C510.571 945.827 511.966 945.238 512.92 944.114C513.812 943.214 514.269 941.997 514.215 940.687C514.215 940.648 514.199 940.601 514.199 940.563C514.401 940.586 514.595 940.617 514.796 940.617C514.944 940.617 515.091 940.617 515.231 940.601C516.572 940.485 517.781 939.865 518.572 938.919C519.472 938.027 519.929 936.818 519.875 935.499C519.828 934.305 519.34 933.173 518.557 932.29L525.644 926.312C526.171 925.87 526.845 925.645 527.543 925.715C528.241 925.769 528.869 926.094 529.311 926.622C530.234 927.715 530.094 929.366 529.001 930.289L528.086 931.064C527.574 931.491 527.512 932.258 527.946 932.77C528.373 933.282 529.14 933.344 529.652 932.91C530.179 932.468 530.854 932.258 531.536 932.313C532.234 932.367 532.862 932.693 533.312 933.22C534.242 934.321 534.095 935.965 533.002 936.887L531.056 938.531C530.544 938.965 530.482 939.725 530.916 940.237C531.342 940.749 532.11 940.811 532.622 940.376C533.149 939.927 533.839 939.725 534.521 939.772C535.219 939.834 535.847 940.152 536.289 940.679C537.212 941.772 537.072 943.424 535.979 944.346L533.622 946.339C533.11 946.765 533.048 947.533 533.475 948.045C533.901 948.556 534.669 948.626 535.18 948.192C535.708 947.742 536.374 947.541 537.08 947.587C537.778 947.649 538.406 947.967 538.848 948.502C539.298 949.029 539.507 949.704 539.453 950.402C539.391 951.1 539.073 951.728 538.545 952.177L527.52 961.466C523.023 965.258 519.324 964.862 513.757 963.753C513.393 963.676 513.021 963.777 512.742 964.017L496.157 978.012C495.645 978.439 495.583 979.206 496.017 979.718C496.258 980.005 496.599 980.144 496.948 980.144C497.227 980.144 497.498 980.051 497.731 979.858L513.866 966.235C516.161 966.676 518.27 966.987 520.301 966.917L535.777 979.865C536.01 980.059 536.281 980.144 536.553 980.144C536.902 980.144 537.243 979.997 537.483 979.71C537.91 979.198 537.848 978.431 537.328 978.004L523.496 966.428C525.333 965.909 527.163 964.94 529.086 963.311L539.685 954.372L549.587 962.73C549.811 962.924 550.091 963.017 550.37 963.017C550.719 963.017 551.06 962.87 551.3 962.59C551.727 962.079 551.664 961.319 551.153 960.885V960.9ZM513.587 927.979C512.672 927.203 512.835 925.8 513.463 924.862C513.773 924.404 514.944 922.985 517.177 924.141L521.86 926.327L516.75 930.646L513.602 927.986H513.595V927.979H513.587ZM503.003 955.581C502.561 956.108 501.933 956.434 501.235 956.488C500.53 956.55 499.863 956.333 499.336 955.891L494.947 952.193C493.854 951.262 493.714 949.619 494.637 948.525C495.552 947.432 497.18 947.293 498.281 948.2L502.693 951.921C503.22 952.363 503.546 952.991 503.6 953.689C503.655 954.387 503.437 955.062 502.995 955.589L503.003 955.581ZM506.221 948.308C505.291 949.402 503.647 949.541 502.554 948.626L499.879 946.37C499.879 946.37 499.879 946.37 499.871 946.354L497.514 944.37C496.42 943.439 496.281 941.795 497.196 940.702C497.646 940.175 498.274 939.849 498.971 939.787C499.669 939.733 500.344 939.942 500.871 940.392C500.871 940.392 500.871 940.392 500.879 940.392L505.903 944.641C507.004 945.564 507.144 947.215 506.221 948.308ZM511.144 942.478C510.214 943.571 508.57 943.71 507.477 942.788L502.422 938.516L500.491 936.887C499.964 936.445 499.638 935.817 499.584 935.12C499.522 934.422 499.739 933.747 500.181 933.22C500.623 932.693 501.259 932.367 501.949 932.313C502.631 932.251 503.313 932.468 503.841 932.902H503.856L510.85 938.81C511.424 939.299 511.788 940.043 511.819 940.787C511.842 941.423 511.633 942.005 511.16 942.478H511.144ZM516.797 937.275C516.355 937.802 515.727 938.128 515.029 938.182C514.331 938.244 513.657 938.027 513.129 937.585C513.067 937.539 513.021 937.531 512.967 937.562C512.788 937.353 512.602 937.135 512.385 936.957L505.391 931.057C505.391 931.057 505.384 931.057 505.376 931.041L504.469 930.281C503.375 929.351 503.236 927.707 504.151 926.614C505.081 925.521 506.725 925.381 507.818 926.296L509.477 927.692L512.106 929.917L512.92 930.607L516.463 933.6C517.037 934.081 517.402 934.825 517.433 935.585C517.464 936.221 517.254 936.787 516.774 937.275H516.797Z" fill="#4F4F4F"/>
<defs>
<linearGradient id="paint0_linear_2159_6380" x1="197.362" y1="101.25" x2="507.031" y2="634.68" gradientUnits="userSpaceOnUse">
<stop stop-color="#2E7040"/>
<stop offset="1" stop-color="#99C555"/>
</linearGradient>
</defs>
</svg>
