<?xml version="1.0" encoding="UTF-8"?>
<svg width="101px" height="86px" viewBox="0 0 101 86" version="1.1" xmlns="http://www.w3.org/2000/svg" xmlns:xlink="http://www.w3.org/1999/xlink">
    <title>Group 4</title>
    <g id="Page-1" stroke="none" stroke-width="1" fill="none" fill-rule="evenodd">
        <g id="Group-4" transform="translate(0.8594, 0.248)" fill-rule="nonzero">
            <path d="M99.3286405,42.5 C99.3286405,65.972 80.3006405,85 56.8286405,85 C33.3556405,85 14.3286405,65.972 14.3286405,42.5 C14.3286405,19.028 33.3556405,0 56.8286405,0 C80.3006405,0 99.3286405,19.028 99.3286405,42.5 Z" id="Path" fill="#FFCA4D"></path>
            <path d="M1.95414046,32.13 L8.12664046,36.766 L6.45764046,39.274 C4.46864046,42.259 5.12064046,46.43 7.90964046,48.558 L8.14964046,48.742 C9.21264046,49.549 10.4576405,49.977 11.7496405,49.977 C12.0926405,49.977 12.4466405,49.953 12.7896405,49.891 C12.8126405,49.891 12.8356405,49.879 12.8586405,49.867 C12.6986405,50.687 12.6646405,51.531 12.8016405,52.375 C13.0756405,54.124 13.9676405,55.665 15.3276405,56.705 L15.5676405,56.888 C16.6646405,57.72 17.9216405,58.124 19.1676405,58.124 C19.8766405,58.124 20.5736405,57.989 21.2366405,57.745 C21.2366405,59.836 22.1286405,61.904 23.8316405,63.2 L24.0716405,63.384 C25.1686405,64.215 26.4256405,64.619 27.6716405,64.619 C28.8036405,64.619 29.9236405,64.277 30.9066405,63.641 C31.1466405,65.353 32.0156405,66.955 33.4326405,68.044 L33.6616405,68.228 C34.7246405,69.035 35.9816405,69.475 37.2616405,69.475 C37.6046405,69.475 37.9586405,69.451 38.3016405,69.39 C39.9366405,69.096 41.3766405,68.142 42.3366405,66.686 L44.2346405,63.836 L48.6006405,67.114 C49.6866405,67.922 50.9436405,68.35 52.2356405,68.35 C52.6006405,68.35 52.9786405,68.313 53.3556405,68.24 C55.0246405,67.922 56.4876405,66.931 57.4586405,65.439 C58.3386405,64.081 58.7046405,62.466 58.5446405,60.852 C59.4596405,61.378 60.4646405,61.647 61.4936405,61.647 C61.8596405,61.647 62.2366405,61.61 62.6136405,61.537 C64.2826405,61.219 65.7456405,60.228 66.7176405,58.735 C67.6656405,57.292 67.9856405,55.579 67.7916405,53.953 C68.5346405,54.258 69.3006405,54.43 70.0776405,54.43 C72.0896405,54.43 74.0666405,53.414 75.3016405,51.518 C76.2046405,50.136 76.5356405,48.521 76.3876405,46.968 C77.4156405,47.641 78.5476405,47.983 79.6906405,47.983 C81.7026405,47.983 83.6796405,46.968 84.9136405,45.072 C86.6286405,42.442 86.3546405,38.956 84.4456405,36.656 L89.7486405,32.155 C91.6126405,30.564 92.0126405,27.69 90.6406405,25.598 L80.2966405,9.794 C78.8676405,7.617 76.0556405,7.079 74.0096405,8.608 C70.7866405,11.017 66.7056405,11.482 63.0936405,9.867 L57.7106405,7.458 C53.7896405,5.696 49.4696405,5.843 45.6976405,7.702 C41.9026405,5.819 37.5366405,5.721 33.6616405,7.458 L28.2776405,9.867 C24.6546405,11.494 20.5736405,11.03 17.3616405,8.608 C16.3786405,7.861 15.1786405,7.58 13.9896405,7.8 C12.8016405,8.02 11.7616405,8.73 11.0756405,9.782 L0.822540455,25.402 C0.125240455,26.454 -0.137659545,27.739 0.0681404555,29.011 C0.296740455,30.271 0.959640455,31.384 1.95414046,32.118 L1.95414046,32.13 Z M9.47464046,46.736 L9.24664046,46.564 C7.47464046,45.219 7.06364046,42.577 8.33164046,40.693 L10.9266405,36.803 C11.6926405,35.653 12.9046405,35.041 14.1386405,35.041 C14.9276405,35.041 15.7276405,35.298 16.4246405,35.824 L16.6646405,36.008 C18.4366405,37.353 18.8476405,39.996 17.5786405,41.879 L14.9846405,45.769 C13.7156405,47.653 11.2466405,48.093 9.48664046,46.736 L9.47464046,46.736 Z M16.8706405,54.882 L16.6416405,54.711 C15.7846405,54.05 15.2246405,53.084 15.0526405,51.983 C14.8816405,50.882 15.1216405,49.757 15.7276405,48.839 L18.1276405,45.243 L20.5166405,41.647 C21.1226405,40.729 22.0366405,40.13 23.0656405,39.947 C23.2826405,39.91 23.4996405,39.885 23.7166405,39.885 C24.5286405,39.885 25.3176405,40.155 25.9916405,40.668 L26.2316405,40.852 C27.0886405,41.512 27.6486405,42.479 27.8206405,43.58 C27.9916405,44.693 27.7516405,45.806 27.1466405,46.723 L22.3456405,53.916 C21.7286405,54.833 20.8256405,55.433 19.7966405,55.616 C18.7566405,55.8 17.7166405,55.543 16.8586405,54.894 L16.8706405,54.882 Z M28.3006405,62.099 C27.2606405,62.283 26.2206405,62.026 25.3626405,61.378 L25.1346405,61.206 C23.3626405,59.861 22.9516405,57.219 24.2196405,55.335 L29.0206405,48.142 C29.6376405,47.225 30.5406405,46.613 31.5696405,46.442 C31.7866405,46.405 32.0036405,46.381 32.2206405,46.381 C33.0326405,46.381 33.8216405,46.65 34.4956405,47.164 L34.7356405,47.347 C36.5076405,48.693 36.9186405,51.335 35.6506405,53.219 L34.5526405,54.87 L31.9586405,58.76 L30.8606405,60.411 C30.2436405,61.329 29.3296405,61.928 28.2896405,62.111 L28.3006405,62.099 Z M40.4626405,65.243 C39.8566405,66.16 38.9416405,66.76 37.9136405,66.943 C36.8846405,67.127 35.8326405,66.87 34.9756405,66.222 L34.7476405,66.038 C32.9866405,64.692 32.5636405,62.063 33.8326405,60.167 L36.1186405,56.742 L36.4276405,56.277 C37.0336405,55.359 37.9476405,54.76 38.9766405,54.576 C40.0166405,54.393 41.0566405,54.65 41.9136405,55.298 L42.1536405,55.482 C43.0116405,56.142 43.5716405,57.108 43.7426405,58.209 C43.9146405,59.31 43.6736405,60.411 43.0796405,61.329 C43.0566405,61.353 43.0336405,61.365 43.0226405,61.39 C43.0116405,61.414 42.9996405,61.451 42.9886405,61.475 L40.4736405,65.231 L40.4626405,65.243 Z M56.8306405,9.672 L62.2136405,12.082 C66.5576405,14.026 71.4606405,13.464 75.3356405,10.577 C76.3416405,9.819 77.7356405,10.088 78.4446405,11.164 L88.7886405,26.968 C89.4636405,27.996 89.2686405,29.427 88.3546405,30.21 L82.6856405,35.041 L61.5056405,19.115 C59.5276405,17.647 57.1956405,16.913 54.8756405,16.913 C52.5556405,16.913 50.1896405,17.659 48.2006405,19.152 L38.3586405,26.516 C37.4676405,27.188 36.3816405,27.445 35.3076405,27.237 C34.2326405,27.042 33.2956405,26.393 32.6786405,25.439 C31.3866405,23.47 31.8436405,20.742 33.6846405,19.36 L44.7026405,11.066 C48.2806405,8.387 52.8296405,7.861 56.8526405,9.672 L56.8306405,9.672 Z M2.70854046,26.797 L12.9386405,11.164 C13.2816405,10.638 13.7956405,10.296 14.3786405,10.186 C14.9616405,10.075 15.5556405,10.21 16.0476405,10.577 C19.9106405,13.476 24.8146405,14.039 29.1696405,12.082 L34.5526405,9.672 C37.2956405,8.436 40.3476405,8.314 43.1486405,9.231 L32.3586405,17.354 C29.4776405,19.507 28.7806405,23.763 30.7926405,26.846 C31.7636405,28.338 33.2266405,29.329 34.8956405,29.647 C36.5756405,29.965 38.2676405,29.561 39.6506405,28.522 L49.4916405,21.158 C52.6806405,18.773 56.9786405,18.76 60.1796405,21.121 L82.0446405,37.561 C83.8856405,38.944 84.3426405,41.671 83.0506405,43.641 C82.4226405,44.595 81.4846405,45.231 80.4216405,45.439 C79.3476405,45.635 78.2616405,45.39 77.3706405,44.717 L62.9106405,33.879 C62.3966405,33.488 61.6876405,33.623 61.3226405,34.185 C60.9566405,34.736 61.0826405,35.506 61.6076405,35.886 L63.1626405,37.048 L72.4436405,44.008 C74.2836405,45.39 74.7296405,48.118 73.4496405,50.087 C72.1576405,52.057 69.6086405,52.546 67.7686405,51.164 L65.1856405,49.219 L56.9326405,43.041 C56.4186405,42.65 55.6986405,42.785 55.3446405,43.347 C54.9786405,43.898 55.1046405,44.668 55.6296405,45.047 L63.8826405,51.225 C65.7226405,52.607 66.1686405,55.335 64.8886405,57.304 C64.2596405,58.258 63.3336405,58.894 62.2596405,59.102 C61.1846405,59.31 60.1106405,59.053 59.2076405,58.381 L50.9546405,52.203 C50.4406405,51.812 49.7316405,51.946 49.3666405,52.509 C49.0006405,53.06 49.1266405,53.83 49.6516405,54.209 L53.1036405,56.79 L54.6356405,57.928 C55.5276405,58.601 56.1216405,59.604 56.3156405,60.741 C56.4986405,61.891 56.2706405,63.053 55.6416405,64.007 C55.0126405,64.962 54.0866405,65.598 53.0126405,65.806 C51.9376405,66.001 50.8526405,65.757 49.9606405,65.084 L45.5256405,61.757 C46.0746405,60.534 46.2576405,59.176 46.0516405,57.818 C45.7776405,56.069 44.8856405,54.527 43.5366405,53.5 L43.2966405,53.316 C41.9486405,52.289 40.2906405,51.873 38.6566405,52.167 C38.6336405,52.167 38.6106405,52.179 38.5876405,52.191 C39.1016405,49.671 38.2106405,46.943 36.1306405,45.353 L35.8906405,45.17 C34.5416405,44.142 32.8836405,43.726 31.2496405,44.02 C30.8956405,44.081 30.5526405,44.191 30.2206405,44.314 C30.2206405,43.934 30.2096405,43.555 30.1526405,43.176 C29.8776405,41.427 28.9866405,39.885 27.6376405,38.858 L27.3976405,38.674 C26.0486405,37.647 24.3916405,37.231 22.7566405,37.525 C21.9566405,37.671 21.2256405,37.965 20.5506405,38.405 C20.2996405,36.693 19.4426405,35.09 18.0246405,34.014 L17.7846405,33.83 C15.1906405,31.849 11.6586405,32.338 9.56664046,34.809 L3.31464046,30.124 C2.82284046,29.757 2.50274046,29.207 2.39984046,28.583 C2.29704046,27.971 2.43414046,27.335 2.76564046,26.809 L2.70854046,26.797 Z" id="Shape" fill="#4F4F4F"></path>
            <path d="M1.95414046,32.13 L8.12664046,36.766 L6.45764046,39.274 C4.46864046,42.259 5.12064046,46.43 7.90964046,48.558 L8.14964046,48.742 C9.21264046,49.549 10.4576405,49.977 11.7496405,49.977 C12.0926405,49.977 12.4466405,49.953 12.7896405,49.891 C12.8126405,49.891 12.8356405,49.879 12.8586405,49.867 C12.6986405,50.687 12.6646405,51.531 12.8016405,52.375 C13.0756405,54.124 13.9676405,55.665 15.3276405,56.705 L15.5676405,56.888 C16.6646405,57.72 17.9216405,58.124 19.1676405,58.124 C19.8766405,58.124 20.5736405,57.989 21.2366405,57.745 C21.2366405,59.836 22.1286405,61.904 23.8316405,63.2 L24.0716405,63.384 C25.1686405,64.215 26.4256405,64.619 27.6716405,64.619 C28.8036405,64.619 29.9236405,64.277 30.9066405,63.641 C31.1466405,65.353 32.0156405,66.955 33.4326405,68.044 L33.6616405,68.228 C34.7246405,69.035 35.9816405,69.475 37.2616405,69.475 C37.6046405,69.475 37.9586405,69.451 38.3016405,69.39 C39.9366405,69.096 41.3766405,68.142 42.3366405,66.686 L44.2346405,63.836 L48.6006405,67.114 C49.6866405,67.922 50.9436405,68.35 52.2356405,68.35 C52.6006405,68.35 52.9786405,68.313 53.3556405,68.24 C55.0246405,67.922 56.4876405,66.931 57.4586405,65.439 C58.3386405,64.081 58.7046405,62.466 58.5446405,60.852 C59.4596405,61.378 60.4646405,61.647 61.4936405,61.647 C61.8596405,61.647 62.2366405,61.61 62.6136405,61.537 C64.2826405,61.219 65.7456405,60.228 66.7176405,58.735 C67.6656405,57.292 67.9856405,55.579 67.7916405,53.953 C68.5346405,54.258 69.3006405,54.43 70.0776405,54.43 C72.0896405,54.43 74.0666405,53.414 75.3016405,51.518 C76.2046405,50.136 76.5356405,48.521 76.3876405,46.968 C77.4156405,47.641 78.5476405,47.983 79.6906405,47.983 C81.7026405,47.983 83.6796405,46.968 84.9136405,45.072 C86.6286405,42.442 86.3546405,38.956 84.4456405,36.656 L89.7486405,32.155 C91.6126405,30.564 92.0126405,27.69 90.6406405,25.598 L80.2966405,9.794 C78.8676405,7.617 76.0556405,7.079 74.0096405,8.608 C70.7866405,11.017 66.7056405,11.482 63.0936405,9.867 L57.7106405,7.458 C53.7896405,5.696 49.4696405,5.843 45.6976405,7.702 C41.9026405,5.819 37.5366405,5.721 33.6616405,7.458 L28.2776405,9.867 C24.6546405,11.494 20.5736405,11.03 17.3616405,8.608 C16.3786405,7.861 15.1786405,7.58 13.9896405,7.8 C12.8016405,8.02 11.7616405,8.73 11.0756405,9.782 L0.822540455,25.402 C0.125240455,26.454 -0.137659545,27.739 0.0681404555,29.011 C0.296740455,30.271 0.959640455,31.384 1.95414046,32.118 L1.95414046,32.13 Z M9.47464046,46.736 L9.24664046,46.564 C7.47464046,45.219 7.06364046,42.577 8.33164046,40.693 L10.9266405,36.803 C11.6926405,35.653 12.9046405,35.041 14.1386405,35.041 C14.9276405,35.041 15.7276405,35.298 16.4246405,35.824 L16.6646405,36.008 C18.4366405,37.353 18.8476405,39.996 17.5786405,41.879 L14.9846405,45.769 C13.7156405,47.653 11.2466405,48.093 9.48664046,46.736 L9.47464046,46.736 Z M16.8706405,54.882 L16.6416405,54.711 C15.7846405,54.05 15.2246405,53.084 15.0526405,51.983 C14.8816405,50.882 15.1216405,49.757 15.7276405,48.839 L18.1276405,45.243 L20.5166405,41.647 C21.1226405,40.729 22.0366405,40.13 23.0656405,39.947 C23.2826405,39.91 23.4996405,39.885 23.7166405,39.885 C24.5286405,39.885 25.3176405,40.155 25.9916405,40.668 L26.2316405,40.852 C27.0886405,41.512 27.6486405,42.479 27.8206405,43.58 C27.9916405,44.693 27.7516405,45.806 27.1466405,46.723 L22.3456405,53.916 C21.7286405,54.833 20.8256405,55.433 19.7966405,55.616 C18.7566405,55.8 17.7166405,55.543 16.8586405,54.894 L16.8706405,54.882 Z M28.3006405,62.099 C27.2606405,62.283 26.2206405,62.026 25.3626405,61.378 L25.1346405,61.206 C23.3626405,59.861 22.9516405,57.219 24.2196405,55.335 L29.0206405,48.142 C29.6376405,47.225 30.5406405,46.613 31.5696405,46.442 C31.7866405,46.405 32.0036405,46.381 32.2206405,46.381 C33.0326405,46.381 33.8216405,46.65 34.4956405,47.164 L34.7356405,47.347 C36.5076405,48.693 36.9186405,51.335 35.6506405,53.219 L34.5526405,54.87 L31.9586405,58.76 L30.8606405,60.411 C30.2436405,61.329 29.3296405,61.928 28.2896405,62.111 L28.3006405,62.099 Z M40.4626405,65.243 C39.8566405,66.16 38.9416405,66.76 37.9136405,66.943 C36.8846405,67.127 35.8326405,66.87 34.9756405,66.222 L34.7476405,66.038 C32.9866405,64.692 32.5636405,62.063 33.8326405,60.167 L36.1186405,56.742 L36.4276405,56.277 C37.0336405,55.359 37.9476405,54.76 38.9766405,54.576 C40.0166405,54.393 41.0566405,54.65 41.9136405,55.298 L42.1536405,55.482 C43.0116405,56.142 43.5716405,57.108 43.7426405,58.209 C43.9146405,59.31 43.6736405,60.411 43.0796405,61.329 C43.0566405,61.353 43.0336405,61.365 43.0226405,61.39 C43.0116405,61.414 42.9996405,61.451 42.9886405,61.475 L40.4736405,65.231 L40.4626405,65.243 Z M56.8306405,9.672 L62.2136405,12.082 C66.5576405,14.026 71.4606405,13.464 75.3356405,10.577 C76.3416405,9.819 77.7356405,10.088 78.4446405,11.164 L88.7886405,26.968 C89.4636405,27.996 89.2686405,29.427 88.3546405,30.21 L82.6856405,35.041 L61.5056405,19.115 C59.5276405,17.647 57.1956405,16.913 54.8756405,16.913 C52.5556405,16.913 50.1896405,17.659 48.2006405,19.152 L38.3586405,26.516 C37.4676405,27.188 36.3816405,27.445 35.3076405,27.237 C34.2326405,27.042 33.2956405,26.393 32.6786405,25.439 C31.3866405,23.47 31.8436405,20.742 33.6846405,19.36 L44.7026405,11.066 C48.2806405,8.387 52.8296405,7.861 56.8526405,9.672 L56.8306405,9.672 Z M2.70854046,26.797 L12.9386405,11.164 C13.2816405,10.638 13.7956405,10.296 14.3786405,10.186 C14.9616405,10.075 15.5556405,10.21 16.0476405,10.577 C19.9106405,13.476 24.8146405,14.039 29.1696405,12.082 L34.5526405,9.672 C37.2956405,8.436 40.3476405,8.314 43.1486405,9.231 L32.3586405,17.354 C29.4776405,19.507 28.7806405,23.763 30.7926405,26.846 C31.7636405,28.338 33.2266405,29.329 34.8956405,29.647 C36.5756405,29.965 38.2676405,29.561 39.6506405,28.522 L49.4916405,21.158 C52.6806405,18.773 56.9786405,18.76 60.1796405,21.121 L82.0446405,37.561 C83.8856405,38.944 84.3426405,41.671 83.0506405,43.641 C82.4226405,44.595 81.4846405,45.231 80.4216405,45.439 C79.3476405,45.635 78.2616405,45.39 77.3706405,44.717 L62.9106405,33.879 C62.3966405,33.488 61.6876405,33.623 61.3226405,34.185 C60.9566405,34.736 61.0826405,35.506 61.6076405,35.886 L63.1626405,37.048 L72.4436405,44.008 C74.2836405,45.39 74.7296405,48.118 73.4496405,50.087 C72.1576405,52.057 69.6086405,52.546 67.7686405,51.164 L65.1856405,49.219 L56.9326405,43.041 C56.4186405,42.65 55.6986405,42.785 55.3446405,43.347 C54.9786405,43.898 55.1046405,44.668 55.6296405,45.047 L63.8826405,51.225 C65.7226405,52.607 66.1686405,55.335 64.8886405,57.304 C64.2596405,58.258 63.3336405,58.894 62.2596405,59.102 C61.1846405,59.31 60.1106405,59.053 59.2076405,58.381 L50.9546405,52.203 C50.4406405,51.812 49.7316405,51.946 49.3666405,52.509 C49.0006405,53.06 49.1266405,53.83 49.6516405,54.209 L53.1036405,56.79 L54.6356405,57.928 C55.5276405,58.601 56.1216405,59.604 56.3156405,60.741 C56.4986405,61.891 56.2706405,63.053 55.6416405,64.007 C55.0126405,64.962 54.0866405,65.598 53.0126405,65.806 C51.9376405,66.001 50.8526405,65.757 49.9606405,65.084 L45.5256405,61.757 C46.0746405,60.534 46.2576405,59.176 46.0516405,57.818 C45.7776405,56.069 44.8856405,54.527 43.5366405,53.5 L43.2966405,53.316 C41.9486405,52.289 40.2906405,51.873 38.6566405,52.167 C38.6336405,52.167 38.6106405,52.179 38.5876405,52.191 C39.1016405,49.671 38.2106405,46.943 36.1306405,45.353 L35.8906405,45.17 C34.5416405,44.142 32.8836405,43.726 31.2496405,44.02 C30.8956405,44.081 30.5526405,44.191 30.2206405,44.314 C30.2206405,43.934 30.2096405,43.555 30.1526405,43.176 C29.8776405,41.427 28.9866405,39.885 27.6376405,38.858 L27.3976405,38.674 C26.0486405,37.647 24.3916405,37.231 22.7566405,37.525 C21.9566405,37.671 21.2256405,37.965 20.5506405,38.405 C20.2996405,36.693 19.4426405,35.09 18.0246405,34.014 L17.7846405,33.83 C15.1906405,31.849 11.6586405,32.338 9.56664046,34.809 L3.31464046,30.124 C2.82284046,29.757 2.50274046,29.207 2.39984046,28.583 C2.29704046,27.971 2.43414046,27.335 2.76564046,26.809 L2.70854046,26.797 Z" id="Shape" fill="#4F4F4F"></path>
        </g>
    </g>
</svg>